%TF.GenerationSoftware,KiCad,Pcbnew,9.0.3*%
%TF.CreationDate,2025-12-16T11:32:59+01:00*%
%TF.ProjectId,PTP_Ante_Leko_Projekt1,5054505f-416e-4746-955f-4c656b6f5f50,rev?*%
%TF.SameCoordinates,Original*%
%TF.FileFunction,Soldermask,Bot*%
%TF.FilePolarity,Negative*%
%FSLAX46Y46*%
G04 Gerber Fmt 4.6, Leading zero omitted, Abs format (unit mm)*
G04 Created by KiCad (PCBNEW 9.0.3) date 2025-12-16 11:32:59*
%MOMM*%
%LPD*%
G01*
G04 APERTURE LIST*
G04 Aperture macros list*
%AMRoundRect*
0 Rectangle with rounded corners*
0 $1 Rounding radius*
0 $2 $3 $4 $5 $6 $7 $8 $9 X,Y pos of 4 corners*
0 Add a 4 corners polygon primitive as box body*
4,1,4,$2,$3,$4,$5,$6,$7,$8,$9,$2,$3,0*
0 Add four circle primitives for the rounded corners*
1,1,$1+$1,$2,$3*
1,1,$1+$1,$4,$5*
1,1,$1+$1,$6,$7*
1,1,$1+$1,$8,$9*
0 Add four rect primitives between the rounded corners*
20,1,$1+$1,$2,$3,$4,$5,0*
20,1,$1+$1,$4,$5,$6,$7,0*
20,1,$1+$1,$6,$7,$8,$9,0*
20,1,$1+$1,$8,$9,$2,$3,0*%
G04 Aperture macros list end*
%ADD10C,5.500000*%
%ADD11R,1.800000X1.800000*%
%ADD12C,1.800000*%
%ADD13R,1.600000X1.600000*%
%ADD14C,1.600000*%
%ADD15RoundRect,0.249999X-0.850001X-0.850001X0.850001X-0.850001X0.850001X0.850001X-0.850001X0.850001X0*%
%ADD16C,2.200000*%
%ADD17O,2.200000X3.500000*%
%ADD18R,1.500000X2.500000*%
%ADD19O,1.500000X2.500000*%
%ADD20C,2.400000*%
%ADD21RoundRect,0.250000X-0.950000X-0.550000X0.950000X-0.550000X0.950000X0.550000X-0.950000X0.550000X0*%
%ADD22O,2.400000X1.600000*%
%ADD23C,2.000000*%
%ADD24RoundRect,0.250000X-0.550000X-0.550000X0.550000X-0.550000X0.550000X0.550000X-0.550000X0.550000X0*%
%ADD25RoundRect,0.250001X-1.149999X1.149999X-1.149999X-1.149999X1.149999X-1.149999X1.149999X1.149999X0*%
%ADD26C,2.800000*%
G04 APERTURE END LIST*
D10*
%TO.C,H1*%
X150000000Y-90000000D03*
%TD*%
D11*
%TO.C,D2*%
X221250000Y-110000000D03*
D12*
X218710000Y-110000000D03*
%TD*%
D13*
%TO.C,U5*%
X212532500Y-82982500D03*
D14*
X212532500Y-85522500D03*
X212532500Y-88062500D03*
X212532500Y-90602500D03*
X212532500Y-93142500D03*
X217612500Y-93142500D03*
X217612500Y-90602500D03*
X217612500Y-88062500D03*
X217612500Y-85522500D03*
X217612500Y-82982500D03*
%TD*%
D15*
%TO.C,D4*%
X173650000Y-156000000D03*
D16*
X186350000Y-156000000D03*
%TD*%
D11*
%TO.C,D5*%
X221250000Y-126250000D03*
D12*
X218710000Y-126250000D03*
%TD*%
D14*
%TO.C,R3*%
X225840000Y-118000000D03*
X236000000Y-118000000D03*
%TD*%
D17*
%TO.C,SW2*%
X173900000Y-136000000D03*
X182100000Y-136000000D03*
D18*
X176000000Y-136000000D03*
D19*
X178000000Y-136000000D03*
X180000000Y-136000000D03*
%TD*%
D20*
%TO.C,L1*%
X196500000Y-136500000D03*
X199500000Y-136500000D03*
%TD*%
D10*
%TO.C,H4*%
X230000000Y-150000000D03*
%TD*%
%TO.C,H2*%
X230000000Y-90000000D03*
%TD*%
D21*
%TO.C,U2*%
X160000000Y-98840000D03*
D22*
X160000000Y-101380000D03*
X160000000Y-103920000D03*
X160000000Y-106460000D03*
X160000000Y-109000000D03*
X160000000Y-111540000D03*
X160000000Y-114080000D03*
X160000000Y-116620000D03*
X167620000Y-116620000D03*
X167620000Y-114080000D03*
X167620000Y-111540000D03*
X167620000Y-109000000D03*
X167620000Y-106460000D03*
X167620000Y-103920000D03*
X167620000Y-101380000D03*
X167620000Y-98840000D03*
%TD*%
D21*
%TO.C,U3*%
X174190000Y-99110000D03*
D22*
X174190000Y-101650000D03*
X174190000Y-104190000D03*
X174190000Y-106730000D03*
X174190000Y-109270000D03*
X174190000Y-111810000D03*
X174190000Y-114350000D03*
X174190000Y-116890000D03*
X181810000Y-116890000D03*
X181810000Y-114350000D03*
X181810000Y-111810000D03*
X181810000Y-109270000D03*
X181810000Y-106730000D03*
X181810000Y-104190000D03*
X181810000Y-101650000D03*
X181810000Y-99110000D03*
%TD*%
D11*
%TO.C,D1*%
X221250000Y-102000000D03*
D12*
X218710000Y-102000000D03*
%TD*%
D23*
%TO.C,SW1*%
X147250000Y-127750000D03*
X153750000Y-127750000D03*
X147250000Y-132250000D03*
X153750000Y-132250000D03*
%TD*%
D14*
%TO.C,R2*%
X225840000Y-110000000D03*
X236000000Y-110000000D03*
%TD*%
%TO.C,R1*%
X225840000Y-102000000D03*
X236000000Y-102000000D03*
%TD*%
D11*
%TO.C,D3*%
X221250000Y-118000000D03*
D12*
X218710000Y-118000000D03*
%TD*%
D24*
%TO.C,U7*%
X160195000Y-143190000D03*
D14*
X160195000Y-145730000D03*
X160195000Y-148270000D03*
X160195000Y-150810000D03*
X167815000Y-150810000D03*
X167815000Y-148270000D03*
X167815000Y-145730000D03*
X167815000Y-143190000D03*
%TD*%
%TO.C,R4*%
X225840000Y-125000000D03*
X236000000Y-125000000D03*
%TD*%
D24*
%TO.C,C1*%
X207000000Y-153000000D03*
D14*
X209000000Y-153000000D03*
%TD*%
D25*
%TO.C,J1*%
X214882500Y-136000000D03*
D26*
X214882500Y-141000000D03*
%TD*%
D21*
%TO.C,U4*%
X188190000Y-99110000D03*
D22*
X188190000Y-101650000D03*
X188190000Y-104190000D03*
X188190000Y-106730000D03*
X188190000Y-109270000D03*
X188190000Y-111810000D03*
X188190000Y-114350000D03*
X188190000Y-116890000D03*
X195810000Y-116890000D03*
X195810000Y-114350000D03*
X195810000Y-111810000D03*
X195810000Y-109270000D03*
X195810000Y-106730000D03*
X195810000Y-104190000D03*
X195810000Y-101650000D03*
X195810000Y-99110000D03*
%TD*%
D21*
%TO.C,U1*%
X191190000Y-145190000D03*
D22*
X191190000Y-147730000D03*
X191190000Y-150270000D03*
X191190000Y-152810000D03*
X198810000Y-152810000D03*
X198810000Y-150270000D03*
X198810000Y-147730000D03*
X198810000Y-145190000D03*
%TD*%
D10*
%TO.C,H3*%
X150000000Y-150000000D03*
%TD*%
D24*
%TO.C,C2*%
X183000000Y-146000000D03*
D14*
X185000000Y-146000000D03*
%TD*%
M02*
