M48
; DRILL file {KiCad 9.0.3} date 2025-12-16T11:32:49+0100
; FORMAT={-:-/ absolute / metric / decimal}
; #@! TF.CreationDate,2025-12-16T11:32:49+01:00
; #@! TF.GenerationSoftware,Kicad,Pcbnew,9.0.3
; #@! TF.FileFunction,Plated,1,2,PTH
FMAT,2
METRIC
; #@! TA.AperFunction,Plated,PTH,ViaDrill
T1C0.300
; #@! TA.AperFunction,Plated,PTH,ComponentDrill
T2C0.800
; #@! TA.AperFunction,Plated,PTH,ComponentDrill
T3C0.900
; #@! TA.AperFunction,Plated,PTH,ComponentDrill
T4C1.100
; #@! TA.AperFunction,Plated,PTH,ComponentDrill
T5C1.200
; #@! TA.AperFunction,Plated,PTH,ComponentDrill
T6C1.400
; #@! TA.AperFunction,Plated,PTH,ComponentDrill
T7C1.500
%
G90
G05
T1
X170.0Y-114.5
X170.0Y-115.95
X171.0Y-109.0
X171.25Y-139.0
X178.0Y-103.25
X178.0Y-130.5
X180.5Y-128.0
X184.0Y-102.0
X185.0Y-103.75
X190.25Y-92.0
X190.75Y-101.5
X191.25Y-155.5
X191.75Y-103.25
X193.0Y-116.0
X197.5Y-122.0
X203.25Y-123.5
X204.0Y-129.0
X204.0Y-131.75
X205.0Y-125.0
X205.75Y-130.0
X207.25Y-97.25
X207.25Y-100.75
X207.25Y-109.0
X207.5Y-105.0
X210.0Y-109.0
X211.0Y-122.0
X214.25Y-121.25
T2
X160.0Y-98.84
X160.0Y-101.38
X160.0Y-103.92
X160.0Y-106.46
X160.0Y-109.0
X160.0Y-111.54
X160.0Y-114.08
X160.0Y-116.62
X160.195Y-143.19
X160.195Y-145.73
X160.195Y-148.27
X160.195Y-150.81
X167.62Y-98.84
X167.62Y-101.38
X167.62Y-103.92
X167.62Y-106.46
X167.62Y-109.0
X167.62Y-111.54
X167.62Y-114.08
X167.62Y-116.62
X167.815Y-143.19
X167.815Y-145.73
X167.815Y-148.27
X167.815Y-150.81
X174.19Y-99.11
X174.19Y-101.65
X174.19Y-104.19
X174.19Y-106.73
X174.19Y-109.27
X174.19Y-111.81
X174.19Y-114.35
X174.19Y-116.89
X176.0Y-136.0
X178.0Y-136.0
X180.0Y-136.0
X181.81Y-99.11
X181.81Y-101.65
X181.81Y-104.19
X181.81Y-106.73
X181.81Y-109.27
X181.81Y-111.81
X181.81Y-114.35
X181.81Y-116.89
X183.0Y-146.0
X185.0Y-146.0
X188.19Y-99.11
X188.19Y-101.65
X188.19Y-104.19
X188.19Y-106.73
X188.19Y-109.27
X188.19Y-111.81
X188.19Y-114.35
X188.19Y-116.89
X191.19Y-145.19
X191.19Y-147.73
X191.19Y-150.27
X191.19Y-152.81
X195.81Y-99.11
X195.81Y-101.65
X195.81Y-104.19
X195.81Y-106.73
X195.81Y-109.27
X195.81Y-111.81
X195.81Y-114.35
X195.81Y-116.89
X198.81Y-145.19
X198.81Y-147.73
X198.81Y-150.27
X198.81Y-152.81
X207.0Y-153.0
X209.0Y-153.0
X212.532Y-82.983
X212.532Y-85.522
X212.532Y-88.062
X212.532Y-90.602
X212.532Y-93.142
X217.612Y-82.983
X217.612Y-85.522
X217.612Y-88.062
X217.612Y-90.602
X217.612Y-93.142
X225.84Y-102.0
X225.84Y-110.0
X225.84Y-118.0
X225.84Y-125.0
X236.0Y-102.0
X236.0Y-110.0
X236.0Y-118.0
X236.0Y-125.0
T3
X218.71Y-102.0
X218.71Y-110.0
X218.71Y-118.0
X218.71Y-126.25
X221.25Y-102.0
X221.25Y-110.0
X221.25Y-118.0
X221.25Y-126.25
T4
X147.25Y-127.75
X147.25Y-132.25
X153.75Y-127.75
X153.75Y-132.25
X173.65Y-156.0
X186.35Y-156.0
T5
X196.5Y-136.5
X199.5Y-136.5
T6
X214.882Y-136.0
X214.882Y-141.0
T7
X173.9Y-136.0
X182.1Y-136.0
M30
