%TF.GenerationSoftware,KiCad,Pcbnew,9.0.3*%
%TF.CreationDate,2025-12-16T11:32:59+01:00*%
%TF.ProjectId,PTP_Ante_Leko_Projekt1,5054505f-416e-4746-955f-4c656b6f5f50,rev?*%
%TF.SameCoordinates,Original*%
%TF.FileFunction,Paste,Top*%
%TF.FilePolarity,Positive*%
%FSLAX46Y46*%
G04 Gerber Fmt 4.6, Leading zero omitted, Abs format (unit mm)*
G04 Created by KiCad (PCBNEW 9.0.3) date 2025-12-16 11:32:59*
%MOMM*%
%LPD*%
G01*
G04 APERTURE LIST*
G04 Aperture macros list*
%AMRoundRect*
0 Rectangle with rounded corners*
0 $1 Rounding radius*
0 $2 $3 $4 $5 $6 $7 $8 $9 X,Y pos of 4 corners*
0 Add a 4 corners polygon primitive as box body*
4,1,4,$2,$3,$4,$5,$6,$7,$8,$9,$2,$3,0*
0 Add four circle primitives for the rounded corners*
1,1,$1+$1,$2,$3*
1,1,$1+$1,$4,$5*
1,1,$1+$1,$6,$7*
1,1,$1+$1,$8,$9*
0 Add four rect primitives between the rounded corners*
20,1,$1+$1,$2,$3,$4,$5,0*
20,1,$1+$1,$4,$5,$6,$7,0*
20,1,$1+$1,$6,$7,$8,$9,0*
20,1,$1+$1,$8,$9,$2,$3,0*%
G04 Aperture macros list end*
%ADD10RoundRect,0.250000X-0.400000X-0.625000X0.400000X-0.625000X0.400000X0.625000X-0.400000X0.625000X0*%
%ADD11RoundRect,0.150000X-0.512500X-0.150000X0.512500X-0.150000X0.512500X0.150000X-0.512500X0.150000X0*%
%ADD12RoundRect,0.250000X-0.412500X-0.650000X0.412500X-0.650000X0.412500X0.650000X-0.412500X0.650000X0*%
%ADD13RoundRect,0.250000X0.412500X0.650000X-0.412500X0.650000X-0.412500X-0.650000X0.412500X-0.650000X0*%
G04 APERTURE END LIST*
D10*
%TO.C,R14*%
X201900000Y-109000000D03*
X205000000Y-109000000D03*
%TD*%
D11*
%TO.C,U6*%
X200000000Y-125000000D03*
X200000000Y-125950000D03*
X200000000Y-126900000D03*
X202275000Y-126900000D03*
X202275000Y-125950000D03*
X202275000Y-125000000D03*
%TD*%
D10*
%TO.C,R6*%
X201900000Y-101000000D03*
X205000000Y-101000000D03*
%TD*%
%TO.C,R12*%
X148000000Y-106000000D03*
X151100000Y-106000000D03*
%TD*%
D12*
%TO.C,C3*%
X172875000Y-130000000D03*
X176000000Y-130000000D03*
%TD*%
D13*
%TO.C,C5*%
X169000000Y-137000000D03*
X165875000Y-137000000D03*
%TD*%
D10*
%TO.C,R11*%
X148000000Y-111000000D03*
X151100000Y-111000000D03*
%TD*%
%TO.C,R18*%
X201900000Y-93000000D03*
X205000000Y-93000000D03*
%TD*%
%TO.C,R9*%
X148000000Y-101000000D03*
X151100000Y-101000000D03*
%TD*%
%TO.C,R16*%
X201900000Y-113000000D03*
X205000000Y-113000000D03*
%TD*%
%TO.C,R8*%
X201900000Y-105000000D03*
X205000000Y-105000000D03*
%TD*%
D12*
%TO.C,C4*%
X158875000Y-137000000D03*
X162000000Y-137000000D03*
%TD*%
D10*
%TO.C,R5*%
X201900000Y-97000000D03*
X205000000Y-97000000D03*
%TD*%
%TO.C,R13*%
X174700000Y-124750000D03*
X177800000Y-124750000D03*
%TD*%
%TO.C,R19*%
X158000000Y-156000000D03*
X161100000Y-156000000D03*
%TD*%
%TO.C,R17*%
X201900000Y-89000000D03*
X205000000Y-89000000D03*
%TD*%
%TO.C,R10*%
X148000000Y-116000000D03*
X151100000Y-116000000D03*
%TD*%
%TO.C,R7*%
X179900000Y-130000000D03*
X183000000Y-130000000D03*
%TD*%
%TO.C,R20*%
X164900000Y-156000000D03*
X168000000Y-156000000D03*
%TD*%
%TO.C,R15*%
X183900000Y-92000000D03*
X187000000Y-92000000D03*
%TD*%
M02*
