%TF.GenerationSoftware,KiCad,Pcbnew,9.0.3*%
%TF.CreationDate,2025-12-16T11:32:59+01:00*%
%TF.ProjectId,PTP_Ante_Leko_Projekt1,5054505f-416e-4746-955f-4c656b6f5f50,rev?*%
%TF.SameCoordinates,Original*%
%TF.FileFunction,Copper,L1,Top*%
%TF.FilePolarity,Positive*%
%FSLAX46Y46*%
G04 Gerber Fmt 4.6, Leading zero omitted, Abs format (unit mm)*
G04 Created by KiCad (PCBNEW 9.0.3) date 2025-12-16 11:32:59*
%MOMM*%
%LPD*%
G01*
G04 APERTURE LIST*
G04 Aperture macros list*
%AMRoundRect*
0 Rectangle with rounded corners*
0 $1 Rounding radius*
0 $2 $3 $4 $5 $6 $7 $8 $9 X,Y pos of 4 corners*
0 Add a 4 corners polygon primitive as box body*
4,1,4,$2,$3,$4,$5,$6,$7,$8,$9,$2,$3,0*
0 Add four circle primitives for the rounded corners*
1,1,$1+$1,$2,$3*
1,1,$1+$1,$4,$5*
1,1,$1+$1,$6,$7*
1,1,$1+$1,$8,$9*
0 Add four rect primitives between the rounded corners*
20,1,$1+$1,$2,$3,$4,$5,0*
20,1,$1+$1,$4,$5,$6,$7,0*
20,1,$1+$1,$6,$7,$8,$9,0*
20,1,$1+$1,$8,$9,$2,$3,0*%
G04 Aperture macros list end*
%TA.AperFunction,ComponentPad*%
%ADD10R,1.800000X1.800000*%
%TD*%
%TA.AperFunction,ComponentPad*%
%ADD11C,1.800000*%
%TD*%
%TA.AperFunction,SMDPad,CuDef*%
%ADD12RoundRect,0.250000X-0.400000X-0.625000X0.400000X-0.625000X0.400000X0.625000X-0.400000X0.625000X0*%
%TD*%
%TA.AperFunction,ComponentPad*%
%ADD13R,1.600000X1.600000*%
%TD*%
%TA.AperFunction,ComponentPad*%
%ADD14C,1.600000*%
%TD*%
%TA.AperFunction,ComponentPad*%
%ADD15RoundRect,0.249999X-0.850001X-0.850001X0.850001X-0.850001X0.850001X0.850001X-0.850001X0.850001X0*%
%TD*%
%TA.AperFunction,ComponentPad*%
%ADD16C,2.200000*%
%TD*%
%TA.AperFunction,SMDPad,CuDef*%
%ADD17RoundRect,0.150000X-0.512500X-0.150000X0.512500X-0.150000X0.512500X0.150000X-0.512500X0.150000X0*%
%TD*%
%TA.AperFunction,ComponentPad*%
%ADD18O,2.200000X3.500000*%
%TD*%
%TA.AperFunction,ComponentPad*%
%ADD19R,1.500000X2.500000*%
%TD*%
%TA.AperFunction,ComponentPad*%
%ADD20O,1.500000X2.500000*%
%TD*%
%TA.AperFunction,ComponentPad*%
%ADD21C,2.400000*%
%TD*%
%TA.AperFunction,SMDPad,CuDef*%
%ADD22RoundRect,0.250000X-0.412500X-0.650000X0.412500X-0.650000X0.412500X0.650000X-0.412500X0.650000X0*%
%TD*%
%TA.AperFunction,SMDPad,CuDef*%
%ADD23RoundRect,0.250000X0.412500X0.650000X-0.412500X0.650000X-0.412500X-0.650000X0.412500X-0.650000X0*%
%TD*%
%TA.AperFunction,ComponentPad*%
%ADD24RoundRect,0.250000X-0.950000X-0.550000X0.950000X-0.550000X0.950000X0.550000X-0.950000X0.550000X0*%
%TD*%
%TA.AperFunction,ComponentPad*%
%ADD25O,2.400000X1.600000*%
%TD*%
%TA.AperFunction,ComponentPad*%
%ADD26C,2.000000*%
%TD*%
%TA.AperFunction,ComponentPad*%
%ADD27RoundRect,0.250000X-0.550000X-0.550000X0.550000X-0.550000X0.550000X0.550000X-0.550000X0.550000X0*%
%TD*%
%TA.AperFunction,ComponentPad*%
%ADD28RoundRect,0.250001X-1.149999X1.149999X-1.149999X-1.149999X1.149999X-1.149999X1.149999X1.149999X0*%
%TD*%
%TA.AperFunction,ComponentPad*%
%ADD29C,2.800000*%
%TD*%
%TA.AperFunction,ViaPad*%
%ADD30C,0.700000*%
%TD*%
%TA.AperFunction,Conductor*%
%ADD31C,0.300000*%
%TD*%
%TA.AperFunction,Conductor*%
%ADD32C,0.500000*%
%TD*%
G04 APERTURE END LIST*
D10*
%TO.P,D2,1,K*%
%TO.N,Net-(D2-K)*%
X221250000Y-110000000D03*
D11*
%TO.P,D2,2,A*%
%TO.N,Q1*%
X218710000Y-110000000D03*
%TD*%
D12*
%TO.P,R14,1*%
%TO.N,Net-(U4-d)*%
X201900000Y-109000000D03*
%TO.P,R14,2*%
%TO.N,Net-(U5-D)*%
X205000000Y-109000000D03*
%TD*%
D13*
%TO.P,U5,1,CA*%
%TO.N,+5V*%
X212532500Y-82982500D03*
D14*
%TO.P,U5,2,F*%
%TO.N,Net-(U5-F)*%
X212532500Y-85522500D03*
%TO.P,U5,3,G*%
%TO.N,Net-(U5-G)*%
X212532500Y-88062500D03*
%TO.P,U5,4,E*%
%TO.N,Net-(U5-E)*%
X212532500Y-90602500D03*
%TO.P,U5,5,D*%
%TO.N,Net-(U5-D)*%
X212532500Y-93142500D03*
%TO.P,U5,6,CA*%
%TO.N,+5V*%
X217612500Y-93142500D03*
%TO.P,U5,7,DP*%
%TO.N,unconnected-(U5-DP-Pad7)*%
X217612500Y-90602500D03*
%TO.P,U5,8,C*%
%TO.N,Net-(U5-C)*%
X217612500Y-88062500D03*
%TO.P,U5,9,B*%
%TO.N,Net-(U5-B)*%
X217612500Y-85522500D03*
%TO.P,U5,10,A*%
%TO.N,Net-(U5-A)*%
X217612500Y-82982500D03*
%TD*%
D15*
%TO.P,D4,1,K*%
%TO.N,Net-(D4-K)*%
X173650000Y-156000000D03*
D16*
%TO.P,D4,2,A*%
%TO.N,GND*%
X186350000Y-156000000D03*
%TD*%
D17*
%TO.P,U6,1,A*%
%TO.N,Q3*%
X200000000Y-125000000D03*
%TO.P,U6,2,GND*%
%TO.N,GND*%
X200000000Y-125950000D03*
%TO.P,U6,3,B*%
%TO.N,Clock*%
X200000000Y-126900000D03*
%TO.P,U6,4,Y*%
%TO.N,Reset*%
X202275000Y-126900000D03*
%TO.P,U6,5,VCC*%
%TO.N,+5V*%
X202275000Y-125950000D03*
%TO.P,U6,6,C*%
%TO.N,Q1*%
X202275000Y-125000000D03*
%TD*%
D12*
%TO.P,R6,1*%
%TO.N,Net-(U4-b)*%
X201900000Y-101000000D03*
%TO.P,R6,2*%
%TO.N,Net-(U5-B)*%
X205000000Y-101000000D03*
%TD*%
D10*
%TO.P,D5,1,K*%
%TO.N,Net-(D5-K)*%
X221250000Y-126250000D03*
D11*
%TO.P,D5,2,A*%
%TO.N,Q3*%
X218710000Y-126250000D03*
%TD*%
D14*
%TO.P,R3,1*%
%TO.N,Net-(D3-K)*%
X225840000Y-118000000D03*
%TO.P,R3,2*%
%TO.N,GND*%
X236000000Y-118000000D03*
%TD*%
D18*
%TO.P,SW2,*%
%TO.N,*%
X173900000Y-136000000D03*
X182100000Y-136000000D03*
D19*
%TO.P,SW2,1,B*%
%TO.N,Clock*%
X176000000Y-136000000D03*
D20*
%TO.P,SW2,2,C*%
%TO.N,555*%
X178000000Y-136000000D03*
%TO.P,SW2,3,A*%
%TO.N,Net-(SW2-A)*%
X180000000Y-136000000D03*
%TD*%
D12*
%TO.P,R12,1*%
%TO.N,+5V*%
X148000000Y-106000000D03*
%TO.P,R12,2*%
%TO.N,Net-(U3B-J)*%
X151100000Y-106000000D03*
%TD*%
D21*
%TO.P,L1,1,1*%
%TO.N,Net-(D4-K)*%
X196500000Y-136500000D03*
%TO.P,L1,2,2*%
%TO.N,+5V*%
X199500000Y-136500000D03*
%TD*%
D22*
%TO.P,C3,1*%
%TO.N,GND*%
X172875000Y-130000000D03*
%TO.P,C3,2*%
%TO.N,Net-(SW2-A)*%
X176000000Y-130000000D03*
%TD*%
D23*
%TO.P,C5,1*%
%TO.N,Net-(U7-THR)*%
X169000000Y-137000000D03*
%TO.P,C5,2*%
%TO.N,GND*%
X165875000Y-137000000D03*
%TD*%
D12*
%TO.P,R11,1*%
%TO.N,+5V*%
X148000000Y-111000000D03*
%TO.P,R11,2*%
%TO.N,Net-(U3A-J)*%
X151100000Y-111000000D03*
%TD*%
D24*
%TO.P,U2,1,Q*%
%TO.N,Q0*%
X160000000Y-98840000D03*
D25*
%TO.P,U2,2,~{Q}*%
%TO.N,unconnected-(U2A-~{Q}-Pad2)*%
X160000000Y-101380000D03*
%TO.P,U2,3,C*%
%TO.N,Clock*%
X160000000Y-103920000D03*
%TO.P,U2,4,R*%
%TO.N,Reset*%
X160000000Y-106460000D03*
%TO.P,U2,5,K*%
%TO.N,Net-(U2A-J)*%
X160000000Y-109000000D03*
%TO.P,U2,6,J*%
X160000000Y-111540000D03*
%TO.P,U2,7,S*%
%TO.N,GND*%
X160000000Y-114080000D03*
%TO.P,U2,8,VSS*%
X160000000Y-116620000D03*
%TO.P,U2,9,S*%
X167620000Y-116620000D03*
%TO.P,U2,10,J*%
%TO.N,Net-(U2B-J)*%
X167620000Y-114080000D03*
%TO.P,U2,11,K*%
X167620000Y-111540000D03*
%TO.P,U2,12,R*%
%TO.N,Reset*%
X167620000Y-109000000D03*
%TO.P,U2,13,C*%
%TO.N,Q0*%
X167620000Y-106460000D03*
%TO.P,U2,14,~{Q}*%
%TO.N,unconnected-(U2B-~{Q}-Pad14)*%
X167620000Y-103920000D03*
%TO.P,U2,15,Q*%
%TO.N,Q1*%
X167620000Y-101380000D03*
%TO.P,U2,16,VDD*%
%TO.N,+5V*%
X167620000Y-98840000D03*
%TD*%
D12*
%TO.P,R18,1*%
%TO.N,Net-(U4-g)*%
X201900000Y-93000000D03*
%TO.P,R18,2*%
%TO.N,Net-(U5-G)*%
X205000000Y-93000000D03*
%TD*%
%TO.P,R9,1*%
%TO.N,+5V*%
X148000000Y-101000000D03*
%TO.P,R9,2*%
%TO.N,Net-(U2A-J)*%
X151100000Y-101000000D03*
%TD*%
D24*
%TO.P,U3,1,Q*%
%TO.N,Q2*%
X174190000Y-99110000D03*
D25*
%TO.P,U3,2,~{Q}*%
%TO.N,unconnected-(U3A-~{Q}-Pad2)*%
X174190000Y-101650000D03*
%TO.P,U3,3,C*%
%TO.N,Q1*%
X174190000Y-104190000D03*
%TO.P,U3,4,R*%
%TO.N,Reset*%
X174190000Y-106730000D03*
%TO.P,U3,5,K*%
%TO.N,Net-(U3A-J)*%
X174190000Y-109270000D03*
%TO.P,U3,6,J*%
X174190000Y-111810000D03*
%TO.P,U3,7,S*%
%TO.N,GND*%
X174190000Y-114350000D03*
%TO.P,U3,8,VSS*%
X174190000Y-116890000D03*
%TO.P,U3,9,S*%
X181810000Y-116890000D03*
%TO.P,U3,10,J*%
%TO.N,Net-(U3B-J)*%
X181810000Y-114350000D03*
%TO.P,U3,11,K*%
X181810000Y-111810000D03*
%TO.P,U3,12,R*%
%TO.N,Reset*%
X181810000Y-109270000D03*
%TO.P,U3,13,C*%
%TO.N,Q2*%
X181810000Y-106730000D03*
%TO.P,U3,14,~{Q}*%
%TO.N,unconnected-(U3B-~{Q}-Pad14)*%
X181810000Y-104190000D03*
%TO.P,U3,15,Q*%
%TO.N,Q3*%
X181810000Y-101650000D03*
%TO.P,U3,16,VDD*%
%TO.N,+5V*%
X181810000Y-99110000D03*
%TD*%
D12*
%TO.P,R16,1*%
%TO.N,Net-(U4-e)*%
X201900000Y-113000000D03*
%TO.P,R16,2*%
%TO.N,Net-(U5-E)*%
X205000000Y-113000000D03*
%TD*%
D10*
%TO.P,D1,1,K*%
%TO.N,Net-(D1-K)*%
X221250000Y-102000000D03*
D11*
%TO.P,D1,2,A*%
%TO.N,Q0*%
X218710000Y-102000000D03*
%TD*%
D26*
%TO.P,SW1,1,A*%
%TO.N,GND*%
X147250000Y-127750000D03*
X153750000Y-127750000D03*
%TO.P,SW1,2,A*%
X147250000Y-132250000D03*
X153750000Y-132250000D03*
%TD*%
D14*
%TO.P,R2,1*%
%TO.N,Net-(D2-K)*%
X225840000Y-110000000D03*
%TO.P,R2,2*%
%TO.N,GND*%
X236000000Y-110000000D03*
%TD*%
D12*
%TO.P,R8,1*%
%TO.N,Net-(U4-c)*%
X201900000Y-105000000D03*
%TO.P,R8,2*%
%TO.N,Net-(U5-C)*%
X205000000Y-105000000D03*
%TD*%
D14*
%TO.P,R1,1*%
%TO.N,Net-(D1-K)*%
X225840000Y-102000000D03*
%TO.P,R1,2*%
%TO.N,GND*%
X236000000Y-102000000D03*
%TD*%
D10*
%TO.P,D3,1,K*%
%TO.N,Net-(D3-K)*%
X221250000Y-118000000D03*
D11*
%TO.P,D3,2,A*%
%TO.N,Q2*%
X218710000Y-118000000D03*
%TD*%
D27*
%TO.P,U7,1,GND*%
%TO.N,GND*%
X160195000Y-143190000D03*
D14*
%TO.P,U7,2,TR*%
%TO.N,Net-(U7-THR)*%
X160195000Y-145730000D03*
%TO.P,U7,3,Q*%
%TO.N,555*%
X160195000Y-148270000D03*
%TO.P,U7,4,R*%
%TO.N,+5V*%
X160195000Y-150810000D03*
%TO.P,U7,5,CV*%
%TO.N,unconnected-(U7-CV-Pad5)*%
X167815000Y-150810000D03*
%TO.P,U7,6,THR*%
%TO.N,Net-(U7-THR)*%
X167815000Y-148270000D03*
%TO.P,U7,7,DIS*%
%TO.N,Net-(U7-DIS)*%
X167815000Y-145730000D03*
%TO.P,U7,8,VCC*%
%TO.N,+5V*%
X167815000Y-143190000D03*
%TD*%
D22*
%TO.P,C4,1*%
%TO.N,+5V*%
X158875000Y-137000000D03*
%TO.P,C4,2*%
%TO.N,GND*%
X162000000Y-137000000D03*
%TD*%
D14*
%TO.P,R4,1*%
%TO.N,Net-(D5-K)*%
X225840000Y-125000000D03*
%TO.P,R4,2*%
%TO.N,GND*%
X236000000Y-125000000D03*
%TD*%
D12*
%TO.P,R5,1*%
%TO.N,Net-(U4-a)*%
X201900000Y-97000000D03*
%TO.P,R5,2*%
%TO.N,Net-(U5-A)*%
X205000000Y-97000000D03*
%TD*%
%TO.P,R13,1*%
%TO.N,Net-(R13-Pad1)*%
X174700000Y-124750000D03*
%TO.P,R13,2*%
%TO.N,Net-(SW2-A)*%
X177800000Y-124750000D03*
%TD*%
%TO.P,R19,1*%
%TO.N,+5V*%
X158000000Y-156000000D03*
%TO.P,R19,2*%
%TO.N,Net-(U7-DIS)*%
X161100000Y-156000000D03*
%TD*%
D27*
%TO.P,C1,1*%
%TO.N,VD*%
X207000000Y-153000000D03*
D14*
%TO.P,C1,2*%
%TO.N,GND*%
X209000000Y-153000000D03*
%TD*%
D12*
%TO.P,R17,1*%
%TO.N,Net-(U4-f)*%
X201900000Y-89000000D03*
%TO.P,R17,2*%
%TO.N,Net-(U5-F)*%
X205000000Y-89000000D03*
%TD*%
D28*
%TO.P,J1,1,Pin_1*%
%TO.N,GND*%
X214882500Y-136000000D03*
D29*
%TO.P,J1,2,Pin_2*%
%TO.N,VD*%
X214882500Y-141000000D03*
%TD*%
D24*
%TO.P,U4,1,B*%
%TO.N,Q1*%
X188190000Y-99110000D03*
D25*
%TO.P,U4,2,C*%
%TO.N,Q2*%
X188190000Y-101650000D03*
%TO.P,U4,3,LT*%
%TO.N,Net-(U4-BI)*%
X188190000Y-104190000D03*
%TO.P,U4,4,BI*%
X188190000Y-106730000D03*
%TO.P,U4,5,RBI*%
X188190000Y-109270000D03*
%TO.P,U4,6,D*%
%TO.N,Q3*%
X188190000Y-111810000D03*
%TO.P,U4,7,A*%
%TO.N,Q0*%
X188190000Y-114350000D03*
%TO.P,U4,8,GND*%
%TO.N,GND*%
X188190000Y-116890000D03*
%TO.P,U4,9,e*%
%TO.N,Net-(U4-e)*%
X195810000Y-116890000D03*
%TO.P,U4,10,d*%
%TO.N,Net-(U4-d)*%
X195810000Y-114350000D03*
%TO.P,U4,11,c*%
%TO.N,Net-(U4-c)*%
X195810000Y-111810000D03*
%TO.P,U4,12,b*%
%TO.N,Net-(U4-b)*%
X195810000Y-109270000D03*
%TO.P,U4,13,a*%
%TO.N,Net-(U4-a)*%
X195810000Y-106730000D03*
%TO.P,U4,14,g*%
%TO.N,Net-(U4-g)*%
X195810000Y-104190000D03*
%TO.P,U4,15,f*%
%TO.N,Net-(U4-f)*%
X195810000Y-101650000D03*
%TO.P,U4,16,VCC*%
%TO.N,+5V*%
X195810000Y-99110000D03*
%TD*%
D24*
%TO.P,U1,1,FB*%
%TO.N,+5V*%
X191190000Y-145190000D03*
D25*
%TO.P,U1,2,SGND*%
%TO.N,GND*%
X191190000Y-147730000D03*
%TO.P,U1,3,~{ON}/OFF*%
X191190000Y-150270000D03*
%TO.P,U1,4,PGND*%
X191190000Y-152810000D03*
%TO.P,U1,5,VIN*%
%TO.N,VD*%
X198810000Y-152810000D03*
%TO.P,U1,6,NC*%
%TO.N,unconnected-(U1-NC-Pad6)*%
X198810000Y-150270000D03*
%TO.P,U1,7,OUT*%
%TO.N,Net-(D4-K)*%
X198810000Y-147730000D03*
%TO.P,U1,8,NC*%
%TO.N,unconnected-(U1-NC-Pad8)*%
X198810000Y-145190000D03*
%TD*%
D12*
%TO.P,R10,1*%
%TO.N,+5V*%
X148000000Y-116000000D03*
%TO.P,R10,2*%
%TO.N,Net-(U2B-J)*%
X151100000Y-116000000D03*
%TD*%
%TO.P,R7,1*%
%TO.N,Clock*%
X179900000Y-130000000D03*
%TO.P,R7,2*%
%TO.N,+5V*%
X183000000Y-130000000D03*
%TD*%
D27*
%TO.P,C2,1*%
%TO.N,+5V*%
X183000000Y-146000000D03*
D14*
%TO.P,C2,2*%
%TO.N,GND*%
X185000000Y-146000000D03*
%TD*%
D12*
%TO.P,R20,1*%
%TO.N,Net-(U7-DIS)*%
X164900000Y-156000000D03*
%TO.P,R20,2*%
%TO.N,Net-(U7-THR)*%
X168000000Y-156000000D03*
%TD*%
%TO.P,R15,1*%
%TO.N,+5V*%
X183900000Y-92000000D03*
%TO.P,R15,2*%
%TO.N,Net-(U4-BI)*%
X187000000Y-92000000D03*
%TD*%
D30*
%TO.N,Q3*%
X197500000Y-122000000D03*
X193000000Y-116000000D03*
%TO.N,Clock*%
X178000000Y-130500000D03*
X180500000Y-128000000D03*
%TO.N,Reset*%
X171000000Y-109000000D03*
X204000000Y-129000000D03*
%TO.N,Q3*%
X184000000Y-102000000D03*
%TO.N,GND*%
X191250000Y-155500000D03*
%TO.N,+5V*%
X204000000Y-131750000D03*
X205750000Y-130000000D03*
%TO.N,Net-(U7-THR)*%
X171250000Y-139000000D03*
%TO.N,Q1*%
X211000000Y-122000000D03*
X205000000Y-125000000D03*
X190750000Y-101500000D03*
X203250000Y-123500000D03*
%TO.N,Q2*%
X214250000Y-121250000D03*
X191750000Y-103250000D03*
X178000000Y-103250000D03*
%TO.N,Net-(U5-A)*%
X207250000Y-97250000D03*
%TO.N,Net-(U5-B)*%
X207250000Y-100750000D03*
%TO.N,Net-(U5-C)*%
X207500000Y-105000000D03*
%TO.N,Net-(U2B-J)*%
X170000000Y-114500000D03*
X170000000Y-115950000D03*
%TO.N,Net-(U5-D)*%
X207250000Y-109000000D03*
X210000000Y-109000000D03*
%TO.N,Net-(U4-BI)*%
X185000000Y-103750000D03*
X190250000Y-92000000D03*
%TD*%
D31*
%TO.N,Q3*%
X198500000Y-123000000D02*
X200000000Y-123000000D01*
X197500000Y-122000000D02*
X198500000Y-123000000D01*
X188810000Y-111810000D02*
X193000000Y-116000000D01*
X188190000Y-111810000D02*
X188810000Y-111810000D01*
%TO.N,+5V*%
X148000000Y-119000000D02*
X148000000Y-116000000D01*
X150000000Y-133500000D02*
X150000000Y-121000000D01*
X153500000Y-137000000D02*
X150000000Y-133500000D01*
X150000000Y-121000000D02*
X148000000Y-119000000D01*
X158875000Y-137000000D02*
X153500000Y-137000000D01*
%TO.N,Clock*%
X178500000Y-130000000D02*
X178000000Y-130500000D01*
X179900000Y-130000000D02*
X178500000Y-130000000D01*
X181600000Y-126900000D02*
X180500000Y-128000000D01*
X200000000Y-126900000D02*
X181600000Y-126900000D01*
X180500000Y-129400000D02*
X179900000Y-130000000D01*
X180500000Y-128000000D02*
X180500000Y-129400000D01*
%TO.N,Reset*%
X167620000Y-109000000D02*
X171000000Y-109000000D01*
%TO.N,Net-(U3B-J)*%
X179810000Y-111810000D02*
X181810000Y-111810000D01*
X176119000Y-108119000D02*
X179810000Y-111810000D01*
X173551240Y-108119000D02*
X176119000Y-108119000D01*
X163500000Y-107849000D02*
X173281240Y-107849000D01*
X163929000Y-112929000D02*
X163500000Y-112500000D01*
X163500000Y-112500000D02*
X163500000Y-107849000D01*
X173281240Y-107849000D02*
X173551240Y-108119000D01*
X157500000Y-113000000D02*
X157571000Y-112929000D01*
X151100000Y-106600000D02*
X157500000Y-113000000D01*
X157571000Y-112929000D02*
X163929000Y-112929000D01*
X151100000Y-106000000D02*
X151100000Y-106600000D01*
%TO.N,Reset*%
X176730000Y-106730000D02*
X179270000Y-109270000D01*
X174190000Y-106730000D02*
X176730000Y-106730000D01*
X179270000Y-109270000D02*
X181810000Y-109270000D01*
%TO.N,Q0*%
X168501000Y-105579000D02*
X167620000Y-106460000D01*
X180381000Y-107881000D02*
X178079000Y-105579000D01*
X178079000Y-105579000D02*
X168501000Y-105579000D01*
X182448760Y-107881000D02*
X180381000Y-107881000D01*
X186639000Y-112071240D02*
X182448760Y-107881000D01*
X186639000Y-112799000D02*
X186639000Y-112071240D01*
X188190000Y-114350000D02*
X186639000Y-112799000D01*
%TO.N,Reset*%
X204000000Y-128625000D02*
X204000000Y-129000000D01*
X202275000Y-126900000D02*
X204000000Y-128625000D01*
X202400000Y-126900000D02*
X202275000Y-126900000D01*
X202400000Y-126900000D02*
X202500000Y-127000000D01*
%TO.N,Net-(SW2-A)*%
X180000000Y-134000000D02*
X180000000Y-136000000D01*
X176000000Y-130000000D02*
X180000000Y-134000000D01*
%TO.N,Q3*%
X183650000Y-101650000D02*
X184000000Y-102000000D01*
X181810000Y-101650000D02*
X183650000Y-101650000D01*
%TO.N,+5V*%
X183000000Y-145000000D02*
X183000000Y-146000000D01*
X185000000Y-143000000D02*
X183000000Y-145000000D01*
X187000000Y-143000000D02*
X185000000Y-143000000D01*
X191190000Y-145190000D02*
X189190000Y-145190000D01*
X189190000Y-145190000D02*
X187000000Y-143000000D01*
X192000000Y-144380000D02*
X191190000Y-145190000D01*
X192000000Y-140500000D02*
X192000000Y-144380000D01*
X195500000Y-140500000D02*
X192000000Y-140500000D01*
X199500000Y-136500000D02*
X195500000Y-140500000D01*
X172120000Y-146000000D02*
X183000000Y-146000000D01*
X169310000Y-143190000D02*
X172120000Y-146000000D01*
X167815000Y-143190000D02*
X169310000Y-143190000D01*
D32*
%TO.N,VD*%
X206810000Y-152810000D02*
X207000000Y-153000000D01*
X198810000Y-152810000D02*
X206810000Y-152810000D01*
X210000000Y-156000000D02*
X207000000Y-153000000D01*
X214882500Y-153617500D02*
X212500000Y-156000000D01*
X214882500Y-141000000D02*
X214882500Y-153617500D01*
X212500000Y-156000000D02*
X210000000Y-156000000D01*
D31*
X206750000Y-153250000D02*
X206310000Y-152810000D01*
X207000000Y-153000000D02*
X206750000Y-153250000D01*
%TO.N,GND*%
X166000000Y-137000000D02*
X165875000Y-137000000D01*
X236000000Y-118000000D02*
X236000000Y-125000000D01*
X160195000Y-143190000D02*
X160195000Y-138805000D01*
X236000000Y-102000000D02*
X236000000Y-110000000D01*
X156000000Y-130000000D02*
X172875000Y-130000000D01*
X191250000Y-152870000D02*
X191190000Y-152810000D01*
X201013500Y-127013678D02*
X201013500Y-126301001D01*
X160195000Y-138805000D02*
X162000000Y-137000000D01*
X209749822Y-135750000D02*
X201013500Y-127013678D01*
X191500000Y-122250000D02*
X196000000Y-122250000D01*
X162000000Y-137000000D02*
X165875000Y-137000000D01*
X191190000Y-150270000D02*
X191190000Y-147730000D01*
X188190000Y-116890000D02*
X188190000Y-118940000D01*
X196000000Y-125750000D02*
X196200000Y-125950000D01*
X236000000Y-110000000D02*
X236000000Y-118000000D01*
X214882500Y-136000000D02*
X214882500Y-135867500D01*
X172875000Y-130125000D02*
X166000000Y-137000000D01*
X196200000Y-125950000D02*
X200000000Y-125950000D01*
X196000000Y-122250000D02*
X196000000Y-125750000D01*
X209000000Y-136499822D02*
X209749822Y-135750000D01*
X200662499Y-125950000D02*
X200000000Y-125950000D01*
X188190000Y-118940000D02*
X191500000Y-122250000D01*
X172875000Y-130000000D02*
X172875000Y-130125000D01*
X209000000Y-153000000D02*
X209000000Y-136499822D01*
X153750000Y-127750000D02*
X156000000Y-130000000D01*
X215000000Y-135750000D02*
X209749822Y-135750000D01*
X201013500Y-126301001D02*
X200662499Y-125950000D01*
X191190000Y-147730000D02*
X186730000Y-147730000D01*
X186730000Y-147730000D02*
X185000000Y-146000000D01*
X214882500Y-135867500D02*
X215000000Y-135750000D01*
X191190000Y-152810000D02*
X191190000Y-150270000D01*
X191250000Y-155500000D02*
X191250000Y-152870000D01*
%TO.N,+5V*%
X214750000Y-83750000D02*
X213982500Y-82982500D01*
X181810000Y-94440000D02*
X181810000Y-99110000D01*
X160195000Y-152805000D02*
X160195000Y-150810000D01*
X215000000Y-83750000D02*
X214750000Y-83750000D01*
X160560000Y-150810000D02*
X160750000Y-151000000D01*
X167620000Y-94630000D02*
X167620000Y-98840000D01*
X167750000Y-94250000D02*
X167750000Y-94500000D01*
X184500000Y-131500000D02*
X184500000Y-139000000D01*
X158000000Y-155000000D02*
X160195000Y-152805000D01*
X195810000Y-94750000D02*
X195810000Y-99110000D01*
X182220000Y-94500000D02*
X195750000Y-94500000D01*
X160750000Y-151000000D02*
X166000000Y-145750000D01*
X166000000Y-145005000D02*
X167815000Y-143190000D01*
X183000000Y-130000000D02*
X184500000Y-131500000D01*
X158000000Y-156000000D02*
X158000000Y-155000000D01*
X205750000Y-130000000D02*
X205750000Y-128762501D01*
X160195000Y-150810000D02*
X160560000Y-150810000D01*
X148000000Y-101000000D02*
X154750000Y-94250000D01*
X215000000Y-90530000D02*
X215000000Y-83750000D01*
X195810000Y-94560000D02*
X195810000Y-94750000D01*
X184500000Y-139000000D02*
X183000000Y-140500000D01*
X181810000Y-94090000D02*
X183900000Y-92000000D01*
X181810000Y-94440000D02*
X181810000Y-94090000D01*
X212532500Y-82982500D02*
X197517500Y-82982500D01*
X197517500Y-82982500D02*
X195810000Y-84690000D01*
X148000000Y-101000000D02*
X148000000Y-106000000D01*
X167750000Y-94500000D02*
X167620000Y-94630000D01*
X181750000Y-94500000D02*
X181810000Y-94440000D01*
X167750000Y-94500000D02*
X181750000Y-94500000D01*
X195810000Y-84690000D02*
X195810000Y-94750000D01*
X166000000Y-145750000D02*
X166000000Y-145005000D01*
X183000000Y-140500000D02*
X183000000Y-146000000D01*
X158875000Y-137000000D02*
X158875000Y-149490000D01*
X148000000Y-116000000D02*
X148000000Y-111000000D01*
X199500000Y-136500000D02*
X203250000Y-132750000D01*
X158875000Y-149490000D02*
X160195000Y-150810000D01*
X181810000Y-94090000D02*
X182220000Y-94500000D01*
X154750000Y-94250000D02*
X167750000Y-94250000D01*
X217612500Y-93142500D02*
X215000000Y-90530000D01*
X203250000Y-132750000D02*
X203250000Y-131750000D01*
X213982500Y-82982500D02*
X212532500Y-82982500D01*
X203250000Y-131750000D02*
X204000000Y-131750000D01*
X202937499Y-125950000D02*
X202275000Y-125950000D01*
X148000000Y-106000000D02*
X148000000Y-111000000D01*
X195750000Y-94500000D02*
X195810000Y-94560000D01*
X205750000Y-128762501D02*
X202937499Y-125950000D01*
%TO.N,Net-(SW2-A)*%
X176000000Y-130000000D02*
X179500000Y-126500000D01*
X179500000Y-126500000D02*
X179500000Y-125000000D01*
X179000000Y-125000000D02*
X178750000Y-124750000D01*
X179500000Y-125000000D02*
X179000000Y-125000000D01*
X178750000Y-124750000D02*
X177800000Y-124750000D01*
%TO.N,Net-(U7-THR)*%
X170250000Y-154250000D02*
X170250000Y-149000000D01*
X168000000Y-156000000D02*
X168500000Y-156000000D01*
X170250000Y-149000000D02*
X169520000Y-148270000D01*
X169250000Y-137000000D02*
X171250000Y-139000000D01*
X169520000Y-148270000D02*
X167815000Y-148270000D01*
X168500000Y-156000000D02*
X170250000Y-154250000D01*
X169000000Y-137000000D02*
X169250000Y-137000000D01*
%TO.N,Q0*%
X193500000Y-119500000D02*
X188350000Y-114350000D01*
X202250000Y-115250000D02*
X198000000Y-119500000D01*
X198000000Y-119500000D02*
X193500000Y-119500000D01*
X213500000Y-103250000D02*
X213500000Y-115250000D01*
X167620000Y-106460000D02*
X160000000Y-98840000D01*
X188350000Y-114350000D02*
X188190000Y-114350000D01*
X214750000Y-102000000D02*
X213500000Y-103250000D01*
X213500000Y-115250000D02*
X202250000Y-115250000D01*
X218710000Y-102000000D02*
X214750000Y-102000000D01*
%TO.N,Net-(D1-K)*%
X221250000Y-102000000D02*
X226750000Y-102000000D01*
X226750000Y-102000000D02*
X225840000Y-102000000D01*
%TO.N,Net-(D2-K)*%
X221250000Y-110000000D02*
X225840000Y-110000000D01*
%TO.N,Q1*%
X215250000Y-113460000D02*
X215250000Y-117750000D01*
X218710000Y-110000000D02*
X215250000Y-113460000D01*
X170430000Y-104190000D02*
X167620000Y-101380000D01*
X202500000Y-123500000D02*
X203250000Y-123500000D01*
X202275000Y-125000000D02*
X202275000Y-123725000D01*
X205000000Y-125000000D02*
X202275000Y-125000000D01*
X190750000Y-101500000D02*
X190580000Y-101500000D01*
X188190000Y-99110000D02*
X186801000Y-100499000D01*
X215250000Y-117750000D02*
X211000000Y-122000000D01*
X202275000Y-123725000D02*
X202500000Y-123500000D01*
X190580000Y-101500000D02*
X188190000Y-99110000D01*
X177881000Y-100499000D02*
X174190000Y-104190000D01*
X186801000Y-100499000D02*
X177881000Y-100499000D01*
X174190000Y-104190000D02*
X170430000Y-104190000D01*
%TO.N,Q2*%
X183361000Y-105179000D02*
X181810000Y-106730000D01*
X189790000Y-103250000D02*
X188190000Y-101650000D01*
X186100000Y-101650000D02*
X183361000Y-104389000D01*
X218710000Y-118000000D02*
X217500000Y-118000000D01*
X181480000Y-106730000D02*
X178000000Y-103250000D01*
X183361000Y-104389000D02*
X183361000Y-105179000D01*
X188190000Y-101650000D02*
X186100000Y-101650000D01*
X181810000Y-106730000D02*
X181480000Y-106730000D01*
X217500000Y-118000000D02*
X214250000Y-121250000D01*
X191750000Y-103250000D02*
X189790000Y-103250000D01*
%TO.N,Net-(D3-K)*%
X221250000Y-118000000D02*
X225840000Y-118000000D01*
%TO.N,Q3*%
X201000000Y-122000000D02*
X200000000Y-123000000D01*
X208750000Y-122000000D02*
X201000000Y-122000000D01*
X213000000Y-126250000D02*
X208750000Y-122000000D01*
X200000000Y-123000000D02*
X200000000Y-125000000D01*
X218710000Y-126250000D02*
X213000000Y-126250000D01*
%TO.N,Net-(D5-K)*%
X221250000Y-126250000D02*
X222000000Y-126250000D01*
X222000000Y-126250000D02*
X223250000Y-125000000D01*
X223250000Y-125000000D02*
X225840000Y-125000000D01*
%TO.N,Net-(U4-a)*%
X196250000Y-106750000D02*
X197250000Y-106750000D01*
X196230000Y-106730000D02*
X196250000Y-106750000D01*
X199250000Y-99650000D02*
X201900000Y-97000000D01*
X197250000Y-106750000D02*
X199250000Y-104750000D01*
X199250000Y-104750000D02*
X199250000Y-99650000D01*
X195810000Y-106730000D02*
X196230000Y-106730000D01*
%TO.N,Net-(U5-A)*%
X207250000Y-97250000D02*
X205250000Y-97250000D01*
X205250000Y-97250000D02*
X205000000Y-97000000D01*
%TO.N,Net-(U5-B)*%
X205250000Y-100750000D02*
X205000000Y-101000000D01*
X207250000Y-100750000D02*
X205250000Y-100750000D01*
%TO.N,Net-(U4-b)*%
X198500000Y-106750000D02*
X200000000Y-105250000D01*
X200750000Y-101000000D02*
X201900000Y-101000000D01*
X200000000Y-105250000D02*
X200000000Y-101750000D01*
X200000000Y-101750000D02*
X200750000Y-101000000D01*
X195810000Y-109270000D02*
X198230000Y-109270000D01*
X198500000Y-109000000D02*
X198500000Y-106750000D01*
X198230000Y-109270000D02*
X198500000Y-109000000D01*
%TO.N,Net-(U4-c)*%
X199250000Y-107650000D02*
X201900000Y-105000000D01*
X199250000Y-110500000D02*
X199250000Y-107650000D01*
X195810000Y-111810000D02*
X197940000Y-111810000D01*
X197940000Y-111810000D02*
X199250000Y-110500000D01*
%TO.N,Net-(U5-C)*%
X207500000Y-105000000D02*
X205000000Y-105000000D01*
%TO.N,Net-(U2A-J)*%
X151100000Y-101000000D02*
X152000000Y-101000000D01*
X160000000Y-109000000D02*
X160000000Y-111540000D01*
X152000000Y-101000000D02*
X160000000Y-109000000D01*
%TO.N,Net-(U2B-J)*%
X170000000Y-116250000D02*
X170000000Y-115950000D01*
X167620000Y-114080000D02*
X167620000Y-111540000D01*
X155850000Y-120750000D02*
X168250000Y-120750000D01*
X168250000Y-120750000D02*
X170000000Y-119000000D01*
X168040000Y-114500000D02*
X167620000Y-114080000D01*
X170000000Y-114500000D02*
X168040000Y-114500000D01*
X170000000Y-116750000D02*
X170000000Y-116250000D01*
X151100000Y-116000000D02*
X155850000Y-120750000D01*
X170000000Y-119000000D02*
X170000000Y-116750000D01*
%TO.N,Net-(U3A-J)*%
X153250000Y-111000000D02*
X157500000Y-115250000D01*
X174190000Y-111810000D02*
X174190000Y-109270000D01*
X170750000Y-115250000D02*
X174190000Y-111810000D01*
X151100000Y-111000000D02*
X153250000Y-111000000D01*
X157500000Y-115250000D02*
X170750000Y-115250000D01*
%TO.N,Net-(U3B-J)*%
X181810000Y-111810000D02*
X181810000Y-114350000D01*
%TO.N,Net-(U4-d)*%
X200500000Y-109000000D02*
X201900000Y-109000000D01*
X195810000Y-114350000D02*
X195850000Y-114350000D01*
X198650000Y-114350000D02*
X200250000Y-112750000D01*
X195810000Y-114350000D02*
X198650000Y-114350000D01*
X200250000Y-109250000D02*
X200500000Y-109000000D01*
X200250000Y-112750000D02*
X200250000Y-109250000D01*
X195850000Y-114350000D02*
X196000000Y-114500000D01*
%TO.N,Net-(U5-D)*%
X210250000Y-109000000D02*
X210000000Y-109000000D01*
X207250000Y-109000000D02*
X205000000Y-109000000D01*
X212532500Y-106717500D02*
X210250000Y-109000000D01*
X212532500Y-93142500D02*
X212532500Y-106717500D01*
%TO.N,Net-(U4-BI)*%
X185000000Y-103750000D02*
X185440000Y-104190000D01*
X188190000Y-104190000D02*
X188190000Y-106730000D01*
X185440000Y-104190000D02*
X188190000Y-104190000D01*
X187000000Y-92000000D02*
X190250000Y-92000000D01*
X188190000Y-106730000D02*
X188190000Y-109270000D01*
%TO.N,Net-(U4-e)*%
X195860000Y-116890000D02*
X196000000Y-116750000D01*
X200500000Y-113500000D02*
X201000000Y-113000000D01*
X200500000Y-115000000D02*
X200500000Y-113500000D01*
X198610000Y-116890000D02*
X200500000Y-115000000D01*
X201000000Y-113000000D02*
X201900000Y-113000000D01*
X195810000Y-116890000D02*
X198610000Y-116890000D01*
X195810000Y-116890000D02*
X195860000Y-116890000D01*
%TO.N,Net-(U5-E)*%
X208500000Y-94635000D02*
X208500000Y-113000000D01*
X212532500Y-90602500D02*
X208500000Y-94635000D01*
X208500000Y-113000000D02*
X205000000Y-113000000D01*
%TO.N,Net-(U4-f)*%
X199250000Y-91000000D02*
X201250000Y-89000000D01*
X197350000Y-101650000D02*
X197750000Y-101250000D01*
X197750000Y-101250000D02*
X197750000Y-96750000D01*
X201250000Y-89000000D02*
X201900000Y-89000000D01*
X195810000Y-101650000D02*
X197350000Y-101650000D01*
X197750000Y-96750000D02*
X199250000Y-95250000D01*
X199250000Y-95250000D02*
X199250000Y-91000000D01*
%TO.N,Net-(U5-F)*%
X212532500Y-85522500D02*
X208477500Y-85522500D01*
X208477500Y-85522500D02*
X205000000Y-89000000D01*
%TO.N,Net-(U4-g)*%
X198500000Y-103500000D02*
X198500000Y-98750000D01*
X195810000Y-104190000D02*
X197810000Y-104190000D01*
X197810000Y-104190000D02*
X198500000Y-103500000D01*
X200000000Y-94900000D02*
X201900000Y-93000000D01*
X200000000Y-97250000D02*
X200000000Y-94900000D01*
X198500000Y-98750000D02*
X200000000Y-97250000D01*
%TO.N,Net-(U5-G)*%
X212532500Y-88062500D02*
X209937500Y-88062500D01*
X209937500Y-88062500D02*
X205000000Y-93000000D01*
%TO.N,Net-(U7-DIS)*%
X164900000Y-156000000D02*
X164900000Y-148645000D01*
X161750000Y-156000000D02*
X164900000Y-156000000D01*
X164900000Y-148645000D02*
X167815000Y-145730000D01*
X161100000Y-156000000D02*
X161250000Y-156000000D01*
X161500000Y-155750000D02*
X161750000Y-156000000D01*
X161250000Y-156000000D02*
X161500000Y-155750000D01*
%TO.N,555*%
X175000000Y-140750000D02*
X178000000Y-137750000D01*
X166250000Y-140750000D02*
X175000000Y-140750000D01*
X160270000Y-148270000D02*
X160500000Y-148500000D01*
X160195000Y-148270000D02*
X161480000Y-148270000D01*
X160195000Y-148270000D02*
X160270000Y-148270000D01*
X178000000Y-137750000D02*
X178000000Y-136000000D01*
X166250000Y-143500000D02*
X166250000Y-140750000D01*
X161480000Y-148270000D02*
X166250000Y-143500000D01*
%TD*%
M02*
