%TF.GenerationSoftware,KiCad,Pcbnew,9.0.3*%
%TF.CreationDate,2025-12-16T11:32:59+01:00*%
%TF.ProjectId,PTP_Ante_Leko_Projekt1,5054505f-416e-4746-955f-4c656b6f5f50,rev?*%
%TF.SameCoordinates,Original*%
%TF.FileFunction,Legend,Top*%
%TF.FilePolarity,Positive*%
%FSLAX46Y46*%
G04 Gerber Fmt 4.6, Leading zero omitted, Abs format (unit mm)*
G04 Created by KiCad (PCBNEW 9.0.3) date 2025-12-16 11:32:59*
%MOMM*%
%LPD*%
G01*
G04 APERTURE LIST*
%ADD10C,0.100000*%
%ADD11C,0.150000*%
%ADD12C,0.120000*%
G04 APERTURE END LIST*
D10*
X214780074Y-156872419D02*
X214303884Y-156872419D01*
X214303884Y-156872419D02*
X214303884Y-155872419D01*
X215494360Y-156824800D02*
X215399122Y-156872419D01*
X215399122Y-156872419D02*
X215208646Y-156872419D01*
X215208646Y-156872419D02*
X215113408Y-156824800D01*
X215113408Y-156824800D02*
X215065789Y-156729561D01*
X215065789Y-156729561D02*
X215065789Y-156348609D01*
X215065789Y-156348609D02*
X215113408Y-156253371D01*
X215113408Y-156253371D02*
X215208646Y-156205752D01*
X215208646Y-156205752D02*
X215399122Y-156205752D01*
X215399122Y-156205752D02*
X215494360Y-156253371D01*
X215494360Y-156253371D02*
X215541979Y-156348609D01*
X215541979Y-156348609D02*
X215541979Y-156443847D01*
X215541979Y-156443847D02*
X215065789Y-156539085D01*
X215970551Y-156872419D02*
X215970551Y-155872419D01*
X216065789Y-156491466D02*
X216351503Y-156872419D01*
X216351503Y-156205752D02*
X215970551Y-156586704D01*
X216922932Y-156872419D02*
X216827694Y-156824800D01*
X216827694Y-156824800D02*
X216780075Y-156777180D01*
X216780075Y-156777180D02*
X216732456Y-156681942D01*
X216732456Y-156681942D02*
X216732456Y-156396228D01*
X216732456Y-156396228D02*
X216780075Y-156300990D01*
X216780075Y-156300990D02*
X216827694Y-156253371D01*
X216827694Y-156253371D02*
X216922932Y-156205752D01*
X216922932Y-156205752D02*
X217065789Y-156205752D01*
X217065789Y-156205752D02*
X217161027Y-156253371D01*
X217161027Y-156253371D02*
X217208646Y-156300990D01*
X217208646Y-156300990D02*
X217256265Y-156396228D01*
X217256265Y-156396228D02*
X217256265Y-156681942D01*
X217256265Y-156681942D02*
X217208646Y-156777180D01*
X217208646Y-156777180D02*
X217161027Y-156824800D01*
X217161027Y-156824800D02*
X217065789Y-156872419D01*
X217065789Y-156872419D02*
X216922932Y-156872419D01*
X217684837Y-156491466D02*
X218446742Y-156491466D01*
X219256265Y-156348609D02*
X219399122Y-156396228D01*
X219399122Y-156396228D02*
X219446741Y-156443847D01*
X219446741Y-156443847D02*
X219494360Y-156539085D01*
X219494360Y-156539085D02*
X219494360Y-156681942D01*
X219494360Y-156681942D02*
X219446741Y-156777180D01*
X219446741Y-156777180D02*
X219399122Y-156824800D01*
X219399122Y-156824800D02*
X219303884Y-156872419D01*
X219303884Y-156872419D02*
X218922932Y-156872419D01*
X218922932Y-156872419D02*
X218922932Y-155872419D01*
X218922932Y-155872419D02*
X219256265Y-155872419D01*
X219256265Y-155872419D02*
X219351503Y-155920038D01*
X219351503Y-155920038D02*
X219399122Y-155967657D01*
X219399122Y-155967657D02*
X219446741Y-156062895D01*
X219446741Y-156062895D02*
X219446741Y-156158133D01*
X219446741Y-156158133D02*
X219399122Y-156253371D01*
X219399122Y-156253371D02*
X219351503Y-156300990D01*
X219351503Y-156300990D02*
X219256265Y-156348609D01*
X219256265Y-156348609D02*
X218922932Y-156348609D01*
X220494360Y-156777180D02*
X220446741Y-156824800D01*
X220446741Y-156824800D02*
X220303884Y-156872419D01*
X220303884Y-156872419D02*
X220208646Y-156872419D01*
X220208646Y-156872419D02*
X220065789Y-156824800D01*
X220065789Y-156824800D02*
X219970551Y-156729561D01*
X219970551Y-156729561D02*
X219922932Y-156634323D01*
X219922932Y-156634323D02*
X219875313Y-156443847D01*
X219875313Y-156443847D02*
X219875313Y-156300990D01*
X219875313Y-156300990D02*
X219922932Y-156110514D01*
X219922932Y-156110514D02*
X219970551Y-156015276D01*
X219970551Y-156015276D02*
X220065789Y-155920038D01*
X220065789Y-155920038D02*
X220208646Y-155872419D01*
X220208646Y-155872419D02*
X220303884Y-155872419D01*
X220303884Y-155872419D02*
X220446741Y-155920038D01*
X220446741Y-155920038D02*
X220494360Y-155967657D01*
X220922932Y-156872419D02*
X220922932Y-155872419D01*
X220922932Y-155872419D02*
X221161027Y-155872419D01*
X221161027Y-155872419D02*
X221303884Y-155920038D01*
X221303884Y-155920038D02*
X221399122Y-156015276D01*
X221399122Y-156015276D02*
X221446741Y-156110514D01*
X221446741Y-156110514D02*
X221494360Y-156300990D01*
X221494360Y-156300990D02*
X221494360Y-156443847D01*
X221494360Y-156443847D02*
X221446741Y-156634323D01*
X221446741Y-156634323D02*
X221399122Y-156729561D01*
X221399122Y-156729561D02*
X221303884Y-156824800D01*
X221303884Y-156824800D02*
X221161027Y-156872419D01*
X221161027Y-156872419D02*
X220922932Y-156872419D01*
X223113408Y-156824800D02*
X223018170Y-156872419D01*
X223018170Y-156872419D02*
X222827694Y-156872419D01*
X222827694Y-156872419D02*
X222732456Y-156824800D01*
X222732456Y-156824800D02*
X222684837Y-156777180D01*
X222684837Y-156777180D02*
X222637218Y-156681942D01*
X222637218Y-156681942D02*
X222637218Y-156396228D01*
X222637218Y-156396228D02*
X222684837Y-156300990D01*
X222684837Y-156300990D02*
X222732456Y-156253371D01*
X222732456Y-156253371D02*
X222827694Y-156205752D01*
X222827694Y-156205752D02*
X223018170Y-156205752D01*
X223018170Y-156205752D02*
X223113408Y-156253371D01*
X223684837Y-156872419D02*
X223589599Y-156824800D01*
X223589599Y-156824800D02*
X223541980Y-156777180D01*
X223541980Y-156777180D02*
X223494361Y-156681942D01*
X223494361Y-156681942D02*
X223494361Y-156396228D01*
X223494361Y-156396228D02*
X223541980Y-156300990D01*
X223541980Y-156300990D02*
X223589599Y-156253371D01*
X223589599Y-156253371D02*
X223684837Y-156205752D01*
X223684837Y-156205752D02*
X223827694Y-156205752D01*
X223827694Y-156205752D02*
X223922932Y-156253371D01*
X223922932Y-156253371D02*
X223970551Y-156300990D01*
X223970551Y-156300990D02*
X224018170Y-156396228D01*
X224018170Y-156396228D02*
X224018170Y-156681942D01*
X224018170Y-156681942D02*
X223970551Y-156777180D01*
X223970551Y-156777180D02*
X223922932Y-156824800D01*
X223922932Y-156824800D02*
X223827694Y-156872419D01*
X223827694Y-156872419D02*
X223684837Y-156872419D01*
X224875313Y-156205752D02*
X224875313Y-156872419D01*
X224446742Y-156205752D02*
X224446742Y-156729561D01*
X224446742Y-156729561D02*
X224494361Y-156824800D01*
X224494361Y-156824800D02*
X224589599Y-156872419D01*
X224589599Y-156872419D02*
X224732456Y-156872419D01*
X224732456Y-156872419D02*
X224827694Y-156824800D01*
X224827694Y-156824800D02*
X224875313Y-156777180D01*
X225351504Y-156205752D02*
X225351504Y-156872419D01*
X225351504Y-156300990D02*
X225399123Y-156253371D01*
X225399123Y-156253371D02*
X225494361Y-156205752D01*
X225494361Y-156205752D02*
X225637218Y-156205752D01*
X225637218Y-156205752D02*
X225732456Y-156253371D01*
X225732456Y-156253371D02*
X225780075Y-156348609D01*
X225780075Y-156348609D02*
X225780075Y-156872419D01*
X226113409Y-156205752D02*
X226494361Y-156205752D01*
X226256266Y-155872419D02*
X226256266Y-156729561D01*
X226256266Y-156729561D02*
X226303885Y-156824800D01*
X226303885Y-156824800D02*
X226399123Y-156872419D01*
X226399123Y-156872419D02*
X226494361Y-156872419D01*
X227208647Y-156824800D02*
X227113409Y-156872419D01*
X227113409Y-156872419D02*
X226922933Y-156872419D01*
X226922933Y-156872419D02*
X226827695Y-156824800D01*
X226827695Y-156824800D02*
X226780076Y-156729561D01*
X226780076Y-156729561D02*
X226780076Y-156348609D01*
X226780076Y-156348609D02*
X226827695Y-156253371D01*
X226827695Y-156253371D02*
X226922933Y-156205752D01*
X226922933Y-156205752D02*
X227113409Y-156205752D01*
X227113409Y-156205752D02*
X227208647Y-156253371D01*
X227208647Y-156253371D02*
X227256266Y-156348609D01*
X227256266Y-156348609D02*
X227256266Y-156443847D01*
X227256266Y-156443847D02*
X226780076Y-156539085D01*
X227684838Y-156872419D02*
X227684838Y-156205752D01*
X227684838Y-156396228D02*
X227732457Y-156300990D01*
X227732457Y-156300990D02*
X227780076Y-156253371D01*
X227780076Y-156253371D02*
X227875314Y-156205752D01*
X227875314Y-156205752D02*
X227970552Y-156205752D01*
D11*
X149238095Y-84004819D02*
X149238095Y-83004819D01*
X149238095Y-83481009D02*
X149809523Y-83481009D01*
X149809523Y-84004819D02*
X149809523Y-83004819D01*
X150809523Y-84004819D02*
X150238095Y-84004819D01*
X150523809Y-84004819D02*
X150523809Y-83004819D01*
X150523809Y-83004819D02*
X150428571Y-83147676D01*
X150428571Y-83147676D02*
X150333333Y-83242914D01*
X150333333Y-83242914D02*
X150238095Y-83290533D01*
X219241905Y-114414819D02*
X219241905Y-113414819D01*
X219241905Y-113414819D02*
X219480000Y-113414819D01*
X219480000Y-113414819D02*
X219622857Y-113462438D01*
X219622857Y-113462438D02*
X219718095Y-113557676D01*
X219718095Y-113557676D02*
X219765714Y-113652914D01*
X219765714Y-113652914D02*
X219813333Y-113843390D01*
X219813333Y-113843390D02*
X219813333Y-113986247D01*
X219813333Y-113986247D02*
X219765714Y-114176723D01*
X219765714Y-114176723D02*
X219718095Y-114271961D01*
X219718095Y-114271961D02*
X219622857Y-114367200D01*
X219622857Y-114367200D02*
X219480000Y-114414819D01*
X219480000Y-114414819D02*
X219241905Y-114414819D01*
X220194286Y-113510057D02*
X220241905Y-113462438D01*
X220241905Y-113462438D02*
X220337143Y-113414819D01*
X220337143Y-113414819D02*
X220575238Y-113414819D01*
X220575238Y-113414819D02*
X220670476Y-113462438D01*
X220670476Y-113462438D02*
X220718095Y-113510057D01*
X220718095Y-113510057D02*
X220765714Y-113605295D01*
X220765714Y-113605295D02*
X220765714Y-113700533D01*
X220765714Y-113700533D02*
X220718095Y-113843390D01*
X220718095Y-113843390D02*
X220146667Y-114414819D01*
X220146667Y-114414819D02*
X220765714Y-114414819D01*
X202807142Y-107624819D02*
X202473809Y-107148628D01*
X202235714Y-107624819D02*
X202235714Y-106624819D01*
X202235714Y-106624819D02*
X202616666Y-106624819D01*
X202616666Y-106624819D02*
X202711904Y-106672438D01*
X202711904Y-106672438D02*
X202759523Y-106720057D01*
X202759523Y-106720057D02*
X202807142Y-106815295D01*
X202807142Y-106815295D02*
X202807142Y-106958152D01*
X202807142Y-106958152D02*
X202759523Y-107053390D01*
X202759523Y-107053390D02*
X202711904Y-107101009D01*
X202711904Y-107101009D02*
X202616666Y-107148628D01*
X202616666Y-107148628D02*
X202235714Y-107148628D01*
X203759523Y-107624819D02*
X203188095Y-107624819D01*
X203473809Y-107624819D02*
X203473809Y-106624819D01*
X203473809Y-106624819D02*
X203378571Y-106767676D01*
X203378571Y-106767676D02*
X203283333Y-106862914D01*
X203283333Y-106862914D02*
X203188095Y-106910533D01*
X204616666Y-106958152D02*
X204616666Y-107624819D01*
X204378571Y-106577200D02*
X204140476Y-107291485D01*
X204140476Y-107291485D02*
X204759523Y-107291485D01*
X214310595Y-80278319D02*
X214310595Y-81087842D01*
X214310595Y-81087842D02*
X214358214Y-81183080D01*
X214358214Y-81183080D02*
X214405833Y-81230700D01*
X214405833Y-81230700D02*
X214501071Y-81278319D01*
X214501071Y-81278319D02*
X214691547Y-81278319D01*
X214691547Y-81278319D02*
X214786785Y-81230700D01*
X214786785Y-81230700D02*
X214834404Y-81183080D01*
X214834404Y-81183080D02*
X214882023Y-81087842D01*
X214882023Y-81087842D02*
X214882023Y-80278319D01*
X215834404Y-80278319D02*
X215358214Y-80278319D01*
X215358214Y-80278319D02*
X215310595Y-80754509D01*
X215310595Y-80754509D02*
X215358214Y-80706890D01*
X215358214Y-80706890D02*
X215453452Y-80659271D01*
X215453452Y-80659271D02*
X215691547Y-80659271D01*
X215691547Y-80659271D02*
X215786785Y-80706890D01*
X215786785Y-80706890D02*
X215834404Y-80754509D01*
X215834404Y-80754509D02*
X215882023Y-80849747D01*
X215882023Y-80849747D02*
X215882023Y-81087842D01*
X215882023Y-81087842D02*
X215834404Y-81183080D01*
X215834404Y-81183080D02*
X215786785Y-81230700D01*
X215786785Y-81230700D02*
X215691547Y-81278319D01*
X215691547Y-81278319D02*
X215453452Y-81278319D01*
X215453452Y-81278319D02*
X215358214Y-81230700D01*
X215358214Y-81230700D02*
X215310595Y-81183080D01*
X179261905Y-153984819D02*
X179261905Y-152984819D01*
X179261905Y-152984819D02*
X179500000Y-152984819D01*
X179500000Y-152984819D02*
X179642857Y-153032438D01*
X179642857Y-153032438D02*
X179738095Y-153127676D01*
X179738095Y-153127676D02*
X179785714Y-153222914D01*
X179785714Y-153222914D02*
X179833333Y-153413390D01*
X179833333Y-153413390D02*
X179833333Y-153556247D01*
X179833333Y-153556247D02*
X179785714Y-153746723D01*
X179785714Y-153746723D02*
X179738095Y-153841961D01*
X179738095Y-153841961D02*
X179642857Y-153937200D01*
X179642857Y-153937200D02*
X179500000Y-153984819D01*
X179500000Y-153984819D02*
X179261905Y-153984819D01*
X180690476Y-153318152D02*
X180690476Y-153984819D01*
X180452381Y-152937200D02*
X180214286Y-153651485D01*
X180214286Y-153651485D02*
X180833333Y-153651485D01*
X173388095Y-154354819D02*
X173388095Y-153354819D01*
X173959523Y-154354819D02*
X173530952Y-153783390D01*
X173959523Y-153354819D02*
X173388095Y-153926247D01*
X200375595Y-123004819D02*
X200375595Y-123814342D01*
X200375595Y-123814342D02*
X200423214Y-123909580D01*
X200423214Y-123909580D02*
X200470833Y-123957200D01*
X200470833Y-123957200D02*
X200566071Y-124004819D01*
X200566071Y-124004819D02*
X200756547Y-124004819D01*
X200756547Y-124004819D02*
X200851785Y-123957200D01*
X200851785Y-123957200D02*
X200899404Y-123909580D01*
X200899404Y-123909580D02*
X200947023Y-123814342D01*
X200947023Y-123814342D02*
X200947023Y-123004819D01*
X201851785Y-123004819D02*
X201661309Y-123004819D01*
X201661309Y-123004819D02*
X201566071Y-123052438D01*
X201566071Y-123052438D02*
X201518452Y-123100057D01*
X201518452Y-123100057D02*
X201423214Y-123242914D01*
X201423214Y-123242914D02*
X201375595Y-123433390D01*
X201375595Y-123433390D02*
X201375595Y-123814342D01*
X201375595Y-123814342D02*
X201423214Y-123909580D01*
X201423214Y-123909580D02*
X201470833Y-123957200D01*
X201470833Y-123957200D02*
X201566071Y-124004819D01*
X201566071Y-124004819D02*
X201756547Y-124004819D01*
X201756547Y-124004819D02*
X201851785Y-123957200D01*
X201851785Y-123957200D02*
X201899404Y-123909580D01*
X201899404Y-123909580D02*
X201947023Y-123814342D01*
X201947023Y-123814342D02*
X201947023Y-123576247D01*
X201947023Y-123576247D02*
X201899404Y-123481009D01*
X201899404Y-123481009D02*
X201851785Y-123433390D01*
X201851785Y-123433390D02*
X201756547Y-123385771D01*
X201756547Y-123385771D02*
X201566071Y-123385771D01*
X201566071Y-123385771D02*
X201470833Y-123433390D01*
X201470833Y-123433390D02*
X201423214Y-123481009D01*
X201423214Y-123481009D02*
X201375595Y-123576247D01*
X203283333Y-99624819D02*
X202950000Y-99148628D01*
X202711905Y-99624819D02*
X202711905Y-98624819D01*
X202711905Y-98624819D02*
X203092857Y-98624819D01*
X203092857Y-98624819D02*
X203188095Y-98672438D01*
X203188095Y-98672438D02*
X203235714Y-98720057D01*
X203235714Y-98720057D02*
X203283333Y-98815295D01*
X203283333Y-98815295D02*
X203283333Y-98958152D01*
X203283333Y-98958152D02*
X203235714Y-99053390D01*
X203235714Y-99053390D02*
X203188095Y-99101009D01*
X203188095Y-99101009D02*
X203092857Y-99148628D01*
X203092857Y-99148628D02*
X202711905Y-99148628D01*
X204140476Y-98624819D02*
X203950000Y-98624819D01*
X203950000Y-98624819D02*
X203854762Y-98672438D01*
X203854762Y-98672438D02*
X203807143Y-98720057D01*
X203807143Y-98720057D02*
X203711905Y-98862914D01*
X203711905Y-98862914D02*
X203664286Y-99053390D01*
X203664286Y-99053390D02*
X203664286Y-99434342D01*
X203664286Y-99434342D02*
X203711905Y-99529580D01*
X203711905Y-99529580D02*
X203759524Y-99577200D01*
X203759524Y-99577200D02*
X203854762Y-99624819D01*
X203854762Y-99624819D02*
X204045238Y-99624819D01*
X204045238Y-99624819D02*
X204140476Y-99577200D01*
X204140476Y-99577200D02*
X204188095Y-99529580D01*
X204188095Y-99529580D02*
X204235714Y-99434342D01*
X204235714Y-99434342D02*
X204235714Y-99196247D01*
X204235714Y-99196247D02*
X204188095Y-99101009D01*
X204188095Y-99101009D02*
X204140476Y-99053390D01*
X204140476Y-99053390D02*
X204045238Y-99005771D01*
X204045238Y-99005771D02*
X203854762Y-99005771D01*
X203854762Y-99005771D02*
X203759524Y-99053390D01*
X203759524Y-99053390D02*
X203711905Y-99101009D01*
X203711905Y-99101009D02*
X203664286Y-99196247D01*
X219241905Y-130664819D02*
X219241905Y-129664819D01*
X219241905Y-129664819D02*
X219480000Y-129664819D01*
X219480000Y-129664819D02*
X219622857Y-129712438D01*
X219622857Y-129712438D02*
X219718095Y-129807676D01*
X219718095Y-129807676D02*
X219765714Y-129902914D01*
X219765714Y-129902914D02*
X219813333Y-130093390D01*
X219813333Y-130093390D02*
X219813333Y-130236247D01*
X219813333Y-130236247D02*
X219765714Y-130426723D01*
X219765714Y-130426723D02*
X219718095Y-130521961D01*
X219718095Y-130521961D02*
X219622857Y-130617200D01*
X219622857Y-130617200D02*
X219480000Y-130664819D01*
X219480000Y-130664819D02*
X219241905Y-130664819D01*
X220718095Y-129664819D02*
X220241905Y-129664819D01*
X220241905Y-129664819D02*
X220194286Y-130141009D01*
X220194286Y-130141009D02*
X220241905Y-130093390D01*
X220241905Y-130093390D02*
X220337143Y-130045771D01*
X220337143Y-130045771D02*
X220575238Y-130045771D01*
X220575238Y-130045771D02*
X220670476Y-130093390D01*
X220670476Y-130093390D02*
X220718095Y-130141009D01*
X220718095Y-130141009D02*
X220765714Y-130236247D01*
X220765714Y-130236247D02*
X220765714Y-130474342D01*
X220765714Y-130474342D02*
X220718095Y-130569580D01*
X220718095Y-130569580D02*
X220670476Y-130617200D01*
X220670476Y-130617200D02*
X220575238Y-130664819D01*
X220575238Y-130664819D02*
X220337143Y-130664819D01*
X220337143Y-130664819D02*
X220241905Y-130617200D01*
X220241905Y-130617200D02*
X220194286Y-130569580D01*
X230753333Y-116084819D02*
X230420000Y-115608628D01*
X230181905Y-116084819D02*
X230181905Y-115084819D01*
X230181905Y-115084819D02*
X230562857Y-115084819D01*
X230562857Y-115084819D02*
X230658095Y-115132438D01*
X230658095Y-115132438D02*
X230705714Y-115180057D01*
X230705714Y-115180057D02*
X230753333Y-115275295D01*
X230753333Y-115275295D02*
X230753333Y-115418152D01*
X230753333Y-115418152D02*
X230705714Y-115513390D01*
X230705714Y-115513390D02*
X230658095Y-115561009D01*
X230658095Y-115561009D02*
X230562857Y-115608628D01*
X230562857Y-115608628D02*
X230181905Y-115608628D01*
X231086667Y-115084819D02*
X231705714Y-115084819D01*
X231705714Y-115084819D02*
X231372381Y-115465771D01*
X231372381Y-115465771D02*
X231515238Y-115465771D01*
X231515238Y-115465771D02*
X231610476Y-115513390D01*
X231610476Y-115513390D02*
X231658095Y-115561009D01*
X231658095Y-115561009D02*
X231705714Y-115656247D01*
X231705714Y-115656247D02*
X231705714Y-115894342D01*
X231705714Y-115894342D02*
X231658095Y-115989580D01*
X231658095Y-115989580D02*
X231610476Y-116037200D01*
X231610476Y-116037200D02*
X231515238Y-116084819D01*
X231515238Y-116084819D02*
X231229524Y-116084819D01*
X231229524Y-116084819D02*
X231134286Y-116037200D01*
X231134286Y-116037200D02*
X231086667Y-115989580D01*
X180166667Y-132907200D02*
X180309524Y-132954819D01*
X180309524Y-132954819D02*
X180547619Y-132954819D01*
X180547619Y-132954819D02*
X180642857Y-132907200D01*
X180642857Y-132907200D02*
X180690476Y-132859580D01*
X180690476Y-132859580D02*
X180738095Y-132764342D01*
X180738095Y-132764342D02*
X180738095Y-132669104D01*
X180738095Y-132669104D02*
X180690476Y-132573866D01*
X180690476Y-132573866D02*
X180642857Y-132526247D01*
X180642857Y-132526247D02*
X180547619Y-132478628D01*
X180547619Y-132478628D02*
X180357143Y-132431009D01*
X180357143Y-132431009D02*
X180261905Y-132383390D01*
X180261905Y-132383390D02*
X180214286Y-132335771D01*
X180214286Y-132335771D02*
X180166667Y-132240533D01*
X180166667Y-132240533D02*
X180166667Y-132145295D01*
X180166667Y-132145295D02*
X180214286Y-132050057D01*
X180214286Y-132050057D02*
X180261905Y-132002438D01*
X180261905Y-132002438D02*
X180357143Y-131954819D01*
X180357143Y-131954819D02*
X180595238Y-131954819D01*
X180595238Y-131954819D02*
X180738095Y-132002438D01*
X181071429Y-131954819D02*
X181309524Y-132954819D01*
X181309524Y-132954819D02*
X181500000Y-132240533D01*
X181500000Y-132240533D02*
X181690476Y-132954819D01*
X181690476Y-132954819D02*
X181928572Y-131954819D01*
X182261905Y-132050057D02*
X182309524Y-132002438D01*
X182309524Y-132002438D02*
X182404762Y-131954819D01*
X182404762Y-131954819D02*
X182642857Y-131954819D01*
X182642857Y-131954819D02*
X182738095Y-132002438D01*
X182738095Y-132002438D02*
X182785714Y-132050057D01*
X182785714Y-132050057D02*
X182833333Y-132145295D01*
X182833333Y-132145295D02*
X182833333Y-132240533D01*
X182833333Y-132240533D02*
X182785714Y-132383390D01*
X182785714Y-132383390D02*
X182214286Y-132954819D01*
X182214286Y-132954819D02*
X182833333Y-132954819D01*
X145357142Y-104454819D02*
X145023809Y-103978628D01*
X144785714Y-104454819D02*
X144785714Y-103454819D01*
X144785714Y-103454819D02*
X145166666Y-103454819D01*
X145166666Y-103454819D02*
X145261904Y-103502438D01*
X145261904Y-103502438D02*
X145309523Y-103550057D01*
X145309523Y-103550057D02*
X145357142Y-103645295D01*
X145357142Y-103645295D02*
X145357142Y-103788152D01*
X145357142Y-103788152D02*
X145309523Y-103883390D01*
X145309523Y-103883390D02*
X145261904Y-103931009D01*
X145261904Y-103931009D02*
X145166666Y-103978628D01*
X145166666Y-103978628D02*
X144785714Y-103978628D01*
X146309523Y-104454819D02*
X145738095Y-104454819D01*
X146023809Y-104454819D02*
X146023809Y-103454819D01*
X146023809Y-103454819D02*
X145928571Y-103597676D01*
X145928571Y-103597676D02*
X145833333Y-103692914D01*
X145833333Y-103692914D02*
X145738095Y-103740533D01*
X146690476Y-103550057D02*
X146738095Y-103502438D01*
X146738095Y-103502438D02*
X146833333Y-103454819D01*
X146833333Y-103454819D02*
X147071428Y-103454819D01*
X147071428Y-103454819D02*
X147166666Y-103502438D01*
X147166666Y-103502438D02*
X147214285Y-103550057D01*
X147214285Y-103550057D02*
X147261904Y-103645295D01*
X147261904Y-103645295D02*
X147261904Y-103740533D01*
X147261904Y-103740533D02*
X147214285Y-103883390D01*
X147214285Y-103883390D02*
X146642857Y-104454819D01*
X146642857Y-104454819D02*
X147261904Y-104454819D01*
X197833333Y-132104819D02*
X197357143Y-132104819D01*
X197357143Y-132104819D02*
X197357143Y-131104819D01*
X198690476Y-132104819D02*
X198119048Y-132104819D01*
X198404762Y-132104819D02*
X198404762Y-131104819D01*
X198404762Y-131104819D02*
X198309524Y-131247676D01*
X198309524Y-131247676D02*
X198214286Y-131342914D01*
X198214286Y-131342914D02*
X198119048Y-131390533D01*
X229238095Y-144004819D02*
X229238095Y-143004819D01*
X229238095Y-143481009D02*
X229809523Y-143481009D01*
X229809523Y-144004819D02*
X229809523Y-143004819D01*
X230714285Y-143338152D02*
X230714285Y-144004819D01*
X230476190Y-142957200D02*
X230238095Y-143671485D01*
X230238095Y-143671485D02*
X230857142Y-143671485D01*
X174270833Y-128509580D02*
X174223214Y-128557200D01*
X174223214Y-128557200D02*
X174080357Y-128604819D01*
X174080357Y-128604819D02*
X173985119Y-128604819D01*
X173985119Y-128604819D02*
X173842262Y-128557200D01*
X173842262Y-128557200D02*
X173747024Y-128461961D01*
X173747024Y-128461961D02*
X173699405Y-128366723D01*
X173699405Y-128366723D02*
X173651786Y-128176247D01*
X173651786Y-128176247D02*
X173651786Y-128033390D01*
X173651786Y-128033390D02*
X173699405Y-127842914D01*
X173699405Y-127842914D02*
X173747024Y-127747676D01*
X173747024Y-127747676D02*
X173842262Y-127652438D01*
X173842262Y-127652438D02*
X173985119Y-127604819D01*
X173985119Y-127604819D02*
X174080357Y-127604819D01*
X174080357Y-127604819D02*
X174223214Y-127652438D01*
X174223214Y-127652438D02*
X174270833Y-127700057D01*
X174604167Y-127604819D02*
X175223214Y-127604819D01*
X175223214Y-127604819D02*
X174889881Y-127985771D01*
X174889881Y-127985771D02*
X175032738Y-127985771D01*
X175032738Y-127985771D02*
X175127976Y-128033390D01*
X175127976Y-128033390D02*
X175175595Y-128081009D01*
X175175595Y-128081009D02*
X175223214Y-128176247D01*
X175223214Y-128176247D02*
X175223214Y-128414342D01*
X175223214Y-128414342D02*
X175175595Y-128509580D01*
X175175595Y-128509580D02*
X175127976Y-128557200D01*
X175127976Y-128557200D02*
X175032738Y-128604819D01*
X175032738Y-128604819D02*
X174747024Y-128604819D01*
X174747024Y-128604819D02*
X174651786Y-128557200D01*
X174651786Y-128557200D02*
X174604167Y-128509580D01*
X167270833Y-139209580D02*
X167223214Y-139257200D01*
X167223214Y-139257200D02*
X167080357Y-139304819D01*
X167080357Y-139304819D02*
X166985119Y-139304819D01*
X166985119Y-139304819D02*
X166842262Y-139257200D01*
X166842262Y-139257200D02*
X166747024Y-139161961D01*
X166747024Y-139161961D02*
X166699405Y-139066723D01*
X166699405Y-139066723D02*
X166651786Y-138876247D01*
X166651786Y-138876247D02*
X166651786Y-138733390D01*
X166651786Y-138733390D02*
X166699405Y-138542914D01*
X166699405Y-138542914D02*
X166747024Y-138447676D01*
X166747024Y-138447676D02*
X166842262Y-138352438D01*
X166842262Y-138352438D02*
X166985119Y-138304819D01*
X166985119Y-138304819D02*
X167080357Y-138304819D01*
X167080357Y-138304819D02*
X167223214Y-138352438D01*
X167223214Y-138352438D02*
X167270833Y-138400057D01*
X168175595Y-138304819D02*
X167699405Y-138304819D01*
X167699405Y-138304819D02*
X167651786Y-138781009D01*
X167651786Y-138781009D02*
X167699405Y-138733390D01*
X167699405Y-138733390D02*
X167794643Y-138685771D01*
X167794643Y-138685771D02*
X168032738Y-138685771D01*
X168032738Y-138685771D02*
X168127976Y-138733390D01*
X168127976Y-138733390D02*
X168175595Y-138781009D01*
X168175595Y-138781009D02*
X168223214Y-138876247D01*
X168223214Y-138876247D02*
X168223214Y-139114342D01*
X168223214Y-139114342D02*
X168175595Y-139209580D01*
X168175595Y-139209580D02*
X168127976Y-139257200D01*
X168127976Y-139257200D02*
X168032738Y-139304819D01*
X168032738Y-139304819D02*
X167794643Y-139304819D01*
X167794643Y-139304819D02*
X167699405Y-139257200D01*
X167699405Y-139257200D02*
X167651786Y-139209580D01*
X229238095Y-84004819D02*
X229238095Y-83004819D01*
X229238095Y-83481009D02*
X229809523Y-83481009D01*
X229809523Y-84004819D02*
X229809523Y-83004819D01*
X230238095Y-83100057D02*
X230285714Y-83052438D01*
X230285714Y-83052438D02*
X230380952Y-83004819D01*
X230380952Y-83004819D02*
X230619047Y-83004819D01*
X230619047Y-83004819D02*
X230714285Y-83052438D01*
X230714285Y-83052438D02*
X230761904Y-83100057D01*
X230761904Y-83100057D02*
X230809523Y-83195295D01*
X230809523Y-83195295D02*
X230809523Y-83290533D01*
X230809523Y-83290533D02*
X230761904Y-83433390D01*
X230761904Y-83433390D02*
X230190476Y-84004819D01*
X230190476Y-84004819D02*
X230809523Y-84004819D01*
X145857142Y-109454819D02*
X145523809Y-108978628D01*
X145285714Y-109454819D02*
X145285714Y-108454819D01*
X145285714Y-108454819D02*
X145666666Y-108454819D01*
X145666666Y-108454819D02*
X145761904Y-108502438D01*
X145761904Y-108502438D02*
X145809523Y-108550057D01*
X145809523Y-108550057D02*
X145857142Y-108645295D01*
X145857142Y-108645295D02*
X145857142Y-108788152D01*
X145857142Y-108788152D02*
X145809523Y-108883390D01*
X145809523Y-108883390D02*
X145761904Y-108931009D01*
X145761904Y-108931009D02*
X145666666Y-108978628D01*
X145666666Y-108978628D02*
X145285714Y-108978628D01*
X146809523Y-109454819D02*
X146238095Y-109454819D01*
X146523809Y-109454819D02*
X146523809Y-108454819D01*
X146523809Y-108454819D02*
X146428571Y-108597676D01*
X146428571Y-108597676D02*
X146333333Y-108692914D01*
X146333333Y-108692914D02*
X146238095Y-108740533D01*
X147761904Y-109454819D02*
X147190476Y-109454819D01*
X147476190Y-109454819D02*
X147476190Y-108454819D01*
X147476190Y-108454819D02*
X147380952Y-108597676D01*
X147380952Y-108597676D02*
X147285714Y-108692914D01*
X147285714Y-108692914D02*
X147190476Y-108740533D01*
X163048095Y-95964819D02*
X163048095Y-96774342D01*
X163048095Y-96774342D02*
X163095714Y-96869580D01*
X163095714Y-96869580D02*
X163143333Y-96917200D01*
X163143333Y-96917200D02*
X163238571Y-96964819D01*
X163238571Y-96964819D02*
X163429047Y-96964819D01*
X163429047Y-96964819D02*
X163524285Y-96917200D01*
X163524285Y-96917200D02*
X163571904Y-96869580D01*
X163571904Y-96869580D02*
X163619523Y-96774342D01*
X163619523Y-96774342D02*
X163619523Y-95964819D01*
X164048095Y-96060057D02*
X164095714Y-96012438D01*
X164095714Y-96012438D02*
X164190952Y-95964819D01*
X164190952Y-95964819D02*
X164429047Y-95964819D01*
X164429047Y-95964819D02*
X164524285Y-96012438D01*
X164524285Y-96012438D02*
X164571904Y-96060057D01*
X164571904Y-96060057D02*
X164619523Y-96155295D01*
X164619523Y-96155295D02*
X164619523Y-96250533D01*
X164619523Y-96250533D02*
X164571904Y-96393390D01*
X164571904Y-96393390D02*
X164000476Y-96964819D01*
X164000476Y-96964819D02*
X164619523Y-96964819D01*
X202807142Y-91624819D02*
X202473809Y-91148628D01*
X202235714Y-91624819D02*
X202235714Y-90624819D01*
X202235714Y-90624819D02*
X202616666Y-90624819D01*
X202616666Y-90624819D02*
X202711904Y-90672438D01*
X202711904Y-90672438D02*
X202759523Y-90720057D01*
X202759523Y-90720057D02*
X202807142Y-90815295D01*
X202807142Y-90815295D02*
X202807142Y-90958152D01*
X202807142Y-90958152D02*
X202759523Y-91053390D01*
X202759523Y-91053390D02*
X202711904Y-91101009D01*
X202711904Y-91101009D02*
X202616666Y-91148628D01*
X202616666Y-91148628D02*
X202235714Y-91148628D01*
X203759523Y-91624819D02*
X203188095Y-91624819D01*
X203473809Y-91624819D02*
X203473809Y-90624819D01*
X203473809Y-90624819D02*
X203378571Y-90767676D01*
X203378571Y-90767676D02*
X203283333Y-90862914D01*
X203283333Y-90862914D02*
X203188095Y-90910533D01*
X204330952Y-91053390D02*
X204235714Y-91005771D01*
X204235714Y-91005771D02*
X204188095Y-90958152D01*
X204188095Y-90958152D02*
X204140476Y-90862914D01*
X204140476Y-90862914D02*
X204140476Y-90815295D01*
X204140476Y-90815295D02*
X204188095Y-90720057D01*
X204188095Y-90720057D02*
X204235714Y-90672438D01*
X204235714Y-90672438D02*
X204330952Y-90624819D01*
X204330952Y-90624819D02*
X204521428Y-90624819D01*
X204521428Y-90624819D02*
X204616666Y-90672438D01*
X204616666Y-90672438D02*
X204664285Y-90720057D01*
X204664285Y-90720057D02*
X204711904Y-90815295D01*
X204711904Y-90815295D02*
X204711904Y-90862914D01*
X204711904Y-90862914D02*
X204664285Y-90958152D01*
X204664285Y-90958152D02*
X204616666Y-91005771D01*
X204616666Y-91005771D02*
X204521428Y-91053390D01*
X204521428Y-91053390D02*
X204330952Y-91053390D01*
X204330952Y-91053390D02*
X204235714Y-91101009D01*
X204235714Y-91101009D02*
X204188095Y-91148628D01*
X204188095Y-91148628D02*
X204140476Y-91243866D01*
X204140476Y-91243866D02*
X204140476Y-91434342D01*
X204140476Y-91434342D02*
X204188095Y-91529580D01*
X204188095Y-91529580D02*
X204235714Y-91577200D01*
X204235714Y-91577200D02*
X204330952Y-91624819D01*
X204330952Y-91624819D02*
X204521428Y-91624819D01*
X204521428Y-91624819D02*
X204616666Y-91577200D01*
X204616666Y-91577200D02*
X204664285Y-91529580D01*
X204664285Y-91529580D02*
X204711904Y-91434342D01*
X204711904Y-91434342D02*
X204711904Y-91243866D01*
X204711904Y-91243866D02*
X204664285Y-91148628D01*
X204664285Y-91148628D02*
X204616666Y-91101009D01*
X204616666Y-91101009D02*
X204521428Y-91053390D01*
X145833333Y-99454819D02*
X145500000Y-98978628D01*
X145261905Y-99454819D02*
X145261905Y-98454819D01*
X145261905Y-98454819D02*
X145642857Y-98454819D01*
X145642857Y-98454819D02*
X145738095Y-98502438D01*
X145738095Y-98502438D02*
X145785714Y-98550057D01*
X145785714Y-98550057D02*
X145833333Y-98645295D01*
X145833333Y-98645295D02*
X145833333Y-98788152D01*
X145833333Y-98788152D02*
X145785714Y-98883390D01*
X145785714Y-98883390D02*
X145738095Y-98931009D01*
X145738095Y-98931009D02*
X145642857Y-98978628D01*
X145642857Y-98978628D02*
X145261905Y-98978628D01*
X146309524Y-99454819D02*
X146500000Y-99454819D01*
X146500000Y-99454819D02*
X146595238Y-99407200D01*
X146595238Y-99407200D02*
X146642857Y-99359580D01*
X146642857Y-99359580D02*
X146738095Y-99216723D01*
X146738095Y-99216723D02*
X146785714Y-99026247D01*
X146785714Y-99026247D02*
X146785714Y-98645295D01*
X146785714Y-98645295D02*
X146738095Y-98550057D01*
X146738095Y-98550057D02*
X146690476Y-98502438D01*
X146690476Y-98502438D02*
X146595238Y-98454819D01*
X146595238Y-98454819D02*
X146404762Y-98454819D01*
X146404762Y-98454819D02*
X146309524Y-98502438D01*
X146309524Y-98502438D02*
X146261905Y-98550057D01*
X146261905Y-98550057D02*
X146214286Y-98645295D01*
X146214286Y-98645295D02*
X146214286Y-98883390D01*
X146214286Y-98883390D02*
X146261905Y-98978628D01*
X146261905Y-98978628D02*
X146309524Y-99026247D01*
X146309524Y-99026247D02*
X146404762Y-99073866D01*
X146404762Y-99073866D02*
X146595238Y-99073866D01*
X146595238Y-99073866D02*
X146690476Y-99026247D01*
X146690476Y-99026247D02*
X146738095Y-98978628D01*
X146738095Y-98978628D02*
X146785714Y-98883390D01*
X177238095Y-96234819D02*
X177238095Y-97044342D01*
X177238095Y-97044342D02*
X177285714Y-97139580D01*
X177285714Y-97139580D02*
X177333333Y-97187200D01*
X177333333Y-97187200D02*
X177428571Y-97234819D01*
X177428571Y-97234819D02*
X177619047Y-97234819D01*
X177619047Y-97234819D02*
X177714285Y-97187200D01*
X177714285Y-97187200D02*
X177761904Y-97139580D01*
X177761904Y-97139580D02*
X177809523Y-97044342D01*
X177809523Y-97044342D02*
X177809523Y-96234819D01*
X178190476Y-96234819D02*
X178809523Y-96234819D01*
X178809523Y-96234819D02*
X178476190Y-96615771D01*
X178476190Y-96615771D02*
X178619047Y-96615771D01*
X178619047Y-96615771D02*
X178714285Y-96663390D01*
X178714285Y-96663390D02*
X178761904Y-96711009D01*
X178761904Y-96711009D02*
X178809523Y-96806247D01*
X178809523Y-96806247D02*
X178809523Y-97044342D01*
X178809523Y-97044342D02*
X178761904Y-97139580D01*
X178761904Y-97139580D02*
X178714285Y-97187200D01*
X178714285Y-97187200D02*
X178619047Y-97234819D01*
X178619047Y-97234819D02*
X178333333Y-97234819D01*
X178333333Y-97234819D02*
X178238095Y-97187200D01*
X178238095Y-97187200D02*
X178190476Y-97139580D01*
X202807142Y-111624819D02*
X202473809Y-111148628D01*
X202235714Y-111624819D02*
X202235714Y-110624819D01*
X202235714Y-110624819D02*
X202616666Y-110624819D01*
X202616666Y-110624819D02*
X202711904Y-110672438D01*
X202711904Y-110672438D02*
X202759523Y-110720057D01*
X202759523Y-110720057D02*
X202807142Y-110815295D01*
X202807142Y-110815295D02*
X202807142Y-110958152D01*
X202807142Y-110958152D02*
X202759523Y-111053390D01*
X202759523Y-111053390D02*
X202711904Y-111101009D01*
X202711904Y-111101009D02*
X202616666Y-111148628D01*
X202616666Y-111148628D02*
X202235714Y-111148628D01*
X203759523Y-111624819D02*
X203188095Y-111624819D01*
X203473809Y-111624819D02*
X203473809Y-110624819D01*
X203473809Y-110624819D02*
X203378571Y-110767676D01*
X203378571Y-110767676D02*
X203283333Y-110862914D01*
X203283333Y-110862914D02*
X203188095Y-110910533D01*
X204616666Y-110624819D02*
X204426190Y-110624819D01*
X204426190Y-110624819D02*
X204330952Y-110672438D01*
X204330952Y-110672438D02*
X204283333Y-110720057D01*
X204283333Y-110720057D02*
X204188095Y-110862914D01*
X204188095Y-110862914D02*
X204140476Y-111053390D01*
X204140476Y-111053390D02*
X204140476Y-111434342D01*
X204140476Y-111434342D02*
X204188095Y-111529580D01*
X204188095Y-111529580D02*
X204235714Y-111577200D01*
X204235714Y-111577200D02*
X204330952Y-111624819D01*
X204330952Y-111624819D02*
X204521428Y-111624819D01*
X204521428Y-111624819D02*
X204616666Y-111577200D01*
X204616666Y-111577200D02*
X204664285Y-111529580D01*
X204664285Y-111529580D02*
X204711904Y-111434342D01*
X204711904Y-111434342D02*
X204711904Y-111196247D01*
X204711904Y-111196247D02*
X204664285Y-111101009D01*
X204664285Y-111101009D02*
X204616666Y-111053390D01*
X204616666Y-111053390D02*
X204521428Y-111005771D01*
X204521428Y-111005771D02*
X204330952Y-111005771D01*
X204330952Y-111005771D02*
X204235714Y-111053390D01*
X204235714Y-111053390D02*
X204188095Y-111101009D01*
X204188095Y-111101009D02*
X204140476Y-111196247D01*
X219241905Y-106414819D02*
X219241905Y-105414819D01*
X219241905Y-105414819D02*
X219480000Y-105414819D01*
X219480000Y-105414819D02*
X219622857Y-105462438D01*
X219622857Y-105462438D02*
X219718095Y-105557676D01*
X219718095Y-105557676D02*
X219765714Y-105652914D01*
X219765714Y-105652914D02*
X219813333Y-105843390D01*
X219813333Y-105843390D02*
X219813333Y-105986247D01*
X219813333Y-105986247D02*
X219765714Y-106176723D01*
X219765714Y-106176723D02*
X219718095Y-106271961D01*
X219718095Y-106271961D02*
X219622857Y-106367200D01*
X219622857Y-106367200D02*
X219480000Y-106414819D01*
X219480000Y-106414819D02*
X219241905Y-106414819D01*
X220765714Y-106414819D02*
X220194286Y-106414819D01*
X220480000Y-106414819D02*
X220480000Y-105414819D01*
X220480000Y-105414819D02*
X220384762Y-105557676D01*
X220384762Y-105557676D02*
X220289524Y-105652914D01*
X220289524Y-105652914D02*
X220194286Y-105700533D01*
X149166667Y-126157200D02*
X149309524Y-126204819D01*
X149309524Y-126204819D02*
X149547619Y-126204819D01*
X149547619Y-126204819D02*
X149642857Y-126157200D01*
X149642857Y-126157200D02*
X149690476Y-126109580D01*
X149690476Y-126109580D02*
X149738095Y-126014342D01*
X149738095Y-126014342D02*
X149738095Y-125919104D01*
X149738095Y-125919104D02*
X149690476Y-125823866D01*
X149690476Y-125823866D02*
X149642857Y-125776247D01*
X149642857Y-125776247D02*
X149547619Y-125728628D01*
X149547619Y-125728628D02*
X149357143Y-125681009D01*
X149357143Y-125681009D02*
X149261905Y-125633390D01*
X149261905Y-125633390D02*
X149214286Y-125585771D01*
X149214286Y-125585771D02*
X149166667Y-125490533D01*
X149166667Y-125490533D02*
X149166667Y-125395295D01*
X149166667Y-125395295D02*
X149214286Y-125300057D01*
X149214286Y-125300057D02*
X149261905Y-125252438D01*
X149261905Y-125252438D02*
X149357143Y-125204819D01*
X149357143Y-125204819D02*
X149595238Y-125204819D01*
X149595238Y-125204819D02*
X149738095Y-125252438D01*
X150071429Y-125204819D02*
X150309524Y-126204819D01*
X150309524Y-126204819D02*
X150500000Y-125490533D01*
X150500000Y-125490533D02*
X150690476Y-126204819D01*
X150690476Y-126204819D02*
X150928572Y-125204819D01*
X151833333Y-126204819D02*
X151261905Y-126204819D01*
X151547619Y-126204819D02*
X151547619Y-125204819D01*
X151547619Y-125204819D02*
X151452381Y-125347676D01*
X151452381Y-125347676D02*
X151357143Y-125442914D01*
X151357143Y-125442914D02*
X151261905Y-125490533D01*
X230753333Y-108084819D02*
X230420000Y-107608628D01*
X230181905Y-108084819D02*
X230181905Y-107084819D01*
X230181905Y-107084819D02*
X230562857Y-107084819D01*
X230562857Y-107084819D02*
X230658095Y-107132438D01*
X230658095Y-107132438D02*
X230705714Y-107180057D01*
X230705714Y-107180057D02*
X230753333Y-107275295D01*
X230753333Y-107275295D02*
X230753333Y-107418152D01*
X230753333Y-107418152D02*
X230705714Y-107513390D01*
X230705714Y-107513390D02*
X230658095Y-107561009D01*
X230658095Y-107561009D02*
X230562857Y-107608628D01*
X230562857Y-107608628D02*
X230181905Y-107608628D01*
X231134286Y-107180057D02*
X231181905Y-107132438D01*
X231181905Y-107132438D02*
X231277143Y-107084819D01*
X231277143Y-107084819D02*
X231515238Y-107084819D01*
X231515238Y-107084819D02*
X231610476Y-107132438D01*
X231610476Y-107132438D02*
X231658095Y-107180057D01*
X231658095Y-107180057D02*
X231705714Y-107275295D01*
X231705714Y-107275295D02*
X231705714Y-107370533D01*
X231705714Y-107370533D02*
X231658095Y-107513390D01*
X231658095Y-107513390D02*
X231086667Y-108084819D01*
X231086667Y-108084819D02*
X231705714Y-108084819D01*
X203283333Y-103624819D02*
X202950000Y-103148628D01*
X202711905Y-103624819D02*
X202711905Y-102624819D01*
X202711905Y-102624819D02*
X203092857Y-102624819D01*
X203092857Y-102624819D02*
X203188095Y-102672438D01*
X203188095Y-102672438D02*
X203235714Y-102720057D01*
X203235714Y-102720057D02*
X203283333Y-102815295D01*
X203283333Y-102815295D02*
X203283333Y-102958152D01*
X203283333Y-102958152D02*
X203235714Y-103053390D01*
X203235714Y-103053390D02*
X203188095Y-103101009D01*
X203188095Y-103101009D02*
X203092857Y-103148628D01*
X203092857Y-103148628D02*
X202711905Y-103148628D01*
X203854762Y-103053390D02*
X203759524Y-103005771D01*
X203759524Y-103005771D02*
X203711905Y-102958152D01*
X203711905Y-102958152D02*
X203664286Y-102862914D01*
X203664286Y-102862914D02*
X203664286Y-102815295D01*
X203664286Y-102815295D02*
X203711905Y-102720057D01*
X203711905Y-102720057D02*
X203759524Y-102672438D01*
X203759524Y-102672438D02*
X203854762Y-102624819D01*
X203854762Y-102624819D02*
X204045238Y-102624819D01*
X204045238Y-102624819D02*
X204140476Y-102672438D01*
X204140476Y-102672438D02*
X204188095Y-102720057D01*
X204188095Y-102720057D02*
X204235714Y-102815295D01*
X204235714Y-102815295D02*
X204235714Y-102862914D01*
X204235714Y-102862914D02*
X204188095Y-102958152D01*
X204188095Y-102958152D02*
X204140476Y-103005771D01*
X204140476Y-103005771D02*
X204045238Y-103053390D01*
X204045238Y-103053390D02*
X203854762Y-103053390D01*
X203854762Y-103053390D02*
X203759524Y-103101009D01*
X203759524Y-103101009D02*
X203711905Y-103148628D01*
X203711905Y-103148628D02*
X203664286Y-103243866D01*
X203664286Y-103243866D02*
X203664286Y-103434342D01*
X203664286Y-103434342D02*
X203711905Y-103529580D01*
X203711905Y-103529580D02*
X203759524Y-103577200D01*
X203759524Y-103577200D02*
X203854762Y-103624819D01*
X203854762Y-103624819D02*
X204045238Y-103624819D01*
X204045238Y-103624819D02*
X204140476Y-103577200D01*
X204140476Y-103577200D02*
X204188095Y-103529580D01*
X204188095Y-103529580D02*
X204235714Y-103434342D01*
X204235714Y-103434342D02*
X204235714Y-103243866D01*
X204235714Y-103243866D02*
X204188095Y-103148628D01*
X204188095Y-103148628D02*
X204140476Y-103101009D01*
X204140476Y-103101009D02*
X204045238Y-103053390D01*
X230753333Y-100084819D02*
X230420000Y-99608628D01*
X230181905Y-100084819D02*
X230181905Y-99084819D01*
X230181905Y-99084819D02*
X230562857Y-99084819D01*
X230562857Y-99084819D02*
X230658095Y-99132438D01*
X230658095Y-99132438D02*
X230705714Y-99180057D01*
X230705714Y-99180057D02*
X230753333Y-99275295D01*
X230753333Y-99275295D02*
X230753333Y-99418152D01*
X230753333Y-99418152D02*
X230705714Y-99513390D01*
X230705714Y-99513390D02*
X230658095Y-99561009D01*
X230658095Y-99561009D02*
X230562857Y-99608628D01*
X230562857Y-99608628D02*
X230181905Y-99608628D01*
X231705714Y-100084819D02*
X231134286Y-100084819D01*
X231420000Y-100084819D02*
X231420000Y-99084819D01*
X231420000Y-99084819D02*
X231324762Y-99227676D01*
X231324762Y-99227676D02*
X231229524Y-99322914D01*
X231229524Y-99322914D02*
X231134286Y-99370533D01*
X219241905Y-122414819D02*
X219241905Y-121414819D01*
X219241905Y-121414819D02*
X219480000Y-121414819D01*
X219480000Y-121414819D02*
X219622857Y-121462438D01*
X219622857Y-121462438D02*
X219718095Y-121557676D01*
X219718095Y-121557676D02*
X219765714Y-121652914D01*
X219765714Y-121652914D02*
X219813333Y-121843390D01*
X219813333Y-121843390D02*
X219813333Y-121986247D01*
X219813333Y-121986247D02*
X219765714Y-122176723D01*
X219765714Y-122176723D02*
X219718095Y-122271961D01*
X219718095Y-122271961D02*
X219622857Y-122367200D01*
X219622857Y-122367200D02*
X219480000Y-122414819D01*
X219480000Y-122414819D02*
X219241905Y-122414819D01*
X220146667Y-121414819D02*
X220765714Y-121414819D01*
X220765714Y-121414819D02*
X220432381Y-121795771D01*
X220432381Y-121795771D02*
X220575238Y-121795771D01*
X220575238Y-121795771D02*
X220670476Y-121843390D01*
X220670476Y-121843390D02*
X220718095Y-121891009D01*
X220718095Y-121891009D02*
X220765714Y-121986247D01*
X220765714Y-121986247D02*
X220765714Y-122224342D01*
X220765714Y-122224342D02*
X220718095Y-122319580D01*
X220718095Y-122319580D02*
X220670476Y-122367200D01*
X220670476Y-122367200D02*
X220575238Y-122414819D01*
X220575238Y-122414819D02*
X220289524Y-122414819D01*
X220289524Y-122414819D02*
X220194286Y-122367200D01*
X220194286Y-122367200D02*
X220146667Y-122319580D01*
X163243095Y-140314819D02*
X163243095Y-141124342D01*
X163243095Y-141124342D02*
X163290714Y-141219580D01*
X163290714Y-141219580D02*
X163338333Y-141267200D01*
X163338333Y-141267200D02*
X163433571Y-141314819D01*
X163433571Y-141314819D02*
X163624047Y-141314819D01*
X163624047Y-141314819D02*
X163719285Y-141267200D01*
X163719285Y-141267200D02*
X163766904Y-141219580D01*
X163766904Y-141219580D02*
X163814523Y-141124342D01*
X163814523Y-141124342D02*
X163814523Y-140314819D01*
X164195476Y-140314819D02*
X164862142Y-140314819D01*
X164862142Y-140314819D02*
X164433571Y-141314819D01*
X160270833Y-135509580D02*
X160223214Y-135557200D01*
X160223214Y-135557200D02*
X160080357Y-135604819D01*
X160080357Y-135604819D02*
X159985119Y-135604819D01*
X159985119Y-135604819D02*
X159842262Y-135557200D01*
X159842262Y-135557200D02*
X159747024Y-135461961D01*
X159747024Y-135461961D02*
X159699405Y-135366723D01*
X159699405Y-135366723D02*
X159651786Y-135176247D01*
X159651786Y-135176247D02*
X159651786Y-135033390D01*
X159651786Y-135033390D02*
X159699405Y-134842914D01*
X159699405Y-134842914D02*
X159747024Y-134747676D01*
X159747024Y-134747676D02*
X159842262Y-134652438D01*
X159842262Y-134652438D02*
X159985119Y-134604819D01*
X159985119Y-134604819D02*
X160080357Y-134604819D01*
X160080357Y-134604819D02*
X160223214Y-134652438D01*
X160223214Y-134652438D02*
X160270833Y-134700057D01*
X161127976Y-134938152D02*
X161127976Y-135604819D01*
X160889881Y-134557200D02*
X160651786Y-135271485D01*
X160651786Y-135271485D02*
X161270833Y-135271485D01*
X230753333Y-123084819D02*
X230420000Y-122608628D01*
X230181905Y-123084819D02*
X230181905Y-122084819D01*
X230181905Y-122084819D02*
X230562857Y-122084819D01*
X230562857Y-122084819D02*
X230658095Y-122132438D01*
X230658095Y-122132438D02*
X230705714Y-122180057D01*
X230705714Y-122180057D02*
X230753333Y-122275295D01*
X230753333Y-122275295D02*
X230753333Y-122418152D01*
X230753333Y-122418152D02*
X230705714Y-122513390D01*
X230705714Y-122513390D02*
X230658095Y-122561009D01*
X230658095Y-122561009D02*
X230562857Y-122608628D01*
X230562857Y-122608628D02*
X230181905Y-122608628D01*
X231610476Y-122418152D02*
X231610476Y-123084819D01*
X231372381Y-122037200D02*
X231134286Y-122751485D01*
X231134286Y-122751485D02*
X231753333Y-122751485D01*
X203283333Y-95624819D02*
X202950000Y-95148628D01*
X202711905Y-95624819D02*
X202711905Y-94624819D01*
X202711905Y-94624819D02*
X203092857Y-94624819D01*
X203092857Y-94624819D02*
X203188095Y-94672438D01*
X203188095Y-94672438D02*
X203235714Y-94720057D01*
X203235714Y-94720057D02*
X203283333Y-94815295D01*
X203283333Y-94815295D02*
X203283333Y-94958152D01*
X203283333Y-94958152D02*
X203235714Y-95053390D01*
X203235714Y-95053390D02*
X203188095Y-95101009D01*
X203188095Y-95101009D02*
X203092857Y-95148628D01*
X203092857Y-95148628D02*
X202711905Y-95148628D01*
X204188095Y-94624819D02*
X203711905Y-94624819D01*
X203711905Y-94624819D02*
X203664286Y-95101009D01*
X203664286Y-95101009D02*
X203711905Y-95053390D01*
X203711905Y-95053390D02*
X203807143Y-95005771D01*
X203807143Y-95005771D02*
X204045238Y-95005771D01*
X204045238Y-95005771D02*
X204140476Y-95053390D01*
X204140476Y-95053390D02*
X204188095Y-95101009D01*
X204188095Y-95101009D02*
X204235714Y-95196247D01*
X204235714Y-95196247D02*
X204235714Y-95434342D01*
X204235714Y-95434342D02*
X204188095Y-95529580D01*
X204188095Y-95529580D02*
X204140476Y-95577200D01*
X204140476Y-95577200D02*
X204045238Y-95624819D01*
X204045238Y-95624819D02*
X203807143Y-95624819D01*
X203807143Y-95624819D02*
X203711905Y-95577200D01*
X203711905Y-95577200D02*
X203664286Y-95529580D01*
X175607142Y-123374819D02*
X175273809Y-122898628D01*
X175035714Y-123374819D02*
X175035714Y-122374819D01*
X175035714Y-122374819D02*
X175416666Y-122374819D01*
X175416666Y-122374819D02*
X175511904Y-122422438D01*
X175511904Y-122422438D02*
X175559523Y-122470057D01*
X175559523Y-122470057D02*
X175607142Y-122565295D01*
X175607142Y-122565295D02*
X175607142Y-122708152D01*
X175607142Y-122708152D02*
X175559523Y-122803390D01*
X175559523Y-122803390D02*
X175511904Y-122851009D01*
X175511904Y-122851009D02*
X175416666Y-122898628D01*
X175416666Y-122898628D02*
X175035714Y-122898628D01*
X176559523Y-123374819D02*
X175988095Y-123374819D01*
X176273809Y-123374819D02*
X176273809Y-122374819D01*
X176273809Y-122374819D02*
X176178571Y-122517676D01*
X176178571Y-122517676D02*
X176083333Y-122612914D01*
X176083333Y-122612914D02*
X175988095Y-122660533D01*
X176892857Y-122374819D02*
X177511904Y-122374819D01*
X177511904Y-122374819D02*
X177178571Y-122755771D01*
X177178571Y-122755771D02*
X177321428Y-122755771D01*
X177321428Y-122755771D02*
X177416666Y-122803390D01*
X177416666Y-122803390D02*
X177464285Y-122851009D01*
X177464285Y-122851009D02*
X177511904Y-122946247D01*
X177511904Y-122946247D02*
X177511904Y-123184342D01*
X177511904Y-123184342D02*
X177464285Y-123279580D01*
X177464285Y-123279580D02*
X177416666Y-123327200D01*
X177416666Y-123327200D02*
X177321428Y-123374819D01*
X177321428Y-123374819D02*
X177035714Y-123374819D01*
X177035714Y-123374819D02*
X176940476Y-123327200D01*
X176940476Y-123327200D02*
X176892857Y-123279580D01*
X158907142Y-154624819D02*
X158573809Y-154148628D01*
X158335714Y-154624819D02*
X158335714Y-153624819D01*
X158335714Y-153624819D02*
X158716666Y-153624819D01*
X158716666Y-153624819D02*
X158811904Y-153672438D01*
X158811904Y-153672438D02*
X158859523Y-153720057D01*
X158859523Y-153720057D02*
X158907142Y-153815295D01*
X158907142Y-153815295D02*
X158907142Y-153958152D01*
X158907142Y-153958152D02*
X158859523Y-154053390D01*
X158859523Y-154053390D02*
X158811904Y-154101009D01*
X158811904Y-154101009D02*
X158716666Y-154148628D01*
X158716666Y-154148628D02*
X158335714Y-154148628D01*
X159859523Y-154624819D02*
X159288095Y-154624819D01*
X159573809Y-154624819D02*
X159573809Y-153624819D01*
X159573809Y-153624819D02*
X159478571Y-153767676D01*
X159478571Y-153767676D02*
X159383333Y-153862914D01*
X159383333Y-153862914D02*
X159288095Y-153910533D01*
X160335714Y-154624819D02*
X160526190Y-154624819D01*
X160526190Y-154624819D02*
X160621428Y-154577200D01*
X160621428Y-154577200D02*
X160669047Y-154529580D01*
X160669047Y-154529580D02*
X160764285Y-154386723D01*
X160764285Y-154386723D02*
X160811904Y-154196247D01*
X160811904Y-154196247D02*
X160811904Y-153815295D01*
X160811904Y-153815295D02*
X160764285Y-153720057D01*
X160764285Y-153720057D02*
X160716666Y-153672438D01*
X160716666Y-153672438D02*
X160621428Y-153624819D01*
X160621428Y-153624819D02*
X160430952Y-153624819D01*
X160430952Y-153624819D02*
X160335714Y-153672438D01*
X160335714Y-153672438D02*
X160288095Y-153720057D01*
X160288095Y-153720057D02*
X160240476Y-153815295D01*
X160240476Y-153815295D02*
X160240476Y-154053390D01*
X160240476Y-154053390D02*
X160288095Y-154148628D01*
X160288095Y-154148628D02*
X160335714Y-154196247D01*
X160335714Y-154196247D02*
X160430952Y-154243866D01*
X160430952Y-154243866D02*
X160621428Y-154243866D01*
X160621428Y-154243866D02*
X160716666Y-154196247D01*
X160716666Y-154196247D02*
X160764285Y-154148628D01*
X160764285Y-154148628D02*
X160811904Y-154053390D01*
X207833333Y-149609580D02*
X207785714Y-149657200D01*
X207785714Y-149657200D02*
X207642857Y-149704819D01*
X207642857Y-149704819D02*
X207547619Y-149704819D01*
X207547619Y-149704819D02*
X207404762Y-149657200D01*
X207404762Y-149657200D02*
X207309524Y-149561961D01*
X207309524Y-149561961D02*
X207261905Y-149466723D01*
X207261905Y-149466723D02*
X207214286Y-149276247D01*
X207214286Y-149276247D02*
X207214286Y-149133390D01*
X207214286Y-149133390D02*
X207261905Y-148942914D01*
X207261905Y-148942914D02*
X207309524Y-148847676D01*
X207309524Y-148847676D02*
X207404762Y-148752438D01*
X207404762Y-148752438D02*
X207547619Y-148704819D01*
X207547619Y-148704819D02*
X207642857Y-148704819D01*
X207642857Y-148704819D02*
X207785714Y-148752438D01*
X207785714Y-148752438D02*
X207833333Y-148800057D01*
X208785714Y-149704819D02*
X208214286Y-149704819D01*
X208500000Y-149704819D02*
X208500000Y-148704819D01*
X208500000Y-148704819D02*
X208404762Y-148847676D01*
X208404762Y-148847676D02*
X208309524Y-148942914D01*
X208309524Y-148942914D02*
X208214286Y-148990533D01*
X202807142Y-87624819D02*
X202473809Y-87148628D01*
X202235714Y-87624819D02*
X202235714Y-86624819D01*
X202235714Y-86624819D02*
X202616666Y-86624819D01*
X202616666Y-86624819D02*
X202711904Y-86672438D01*
X202711904Y-86672438D02*
X202759523Y-86720057D01*
X202759523Y-86720057D02*
X202807142Y-86815295D01*
X202807142Y-86815295D02*
X202807142Y-86958152D01*
X202807142Y-86958152D02*
X202759523Y-87053390D01*
X202759523Y-87053390D02*
X202711904Y-87101009D01*
X202711904Y-87101009D02*
X202616666Y-87148628D01*
X202616666Y-87148628D02*
X202235714Y-87148628D01*
X203759523Y-87624819D02*
X203188095Y-87624819D01*
X203473809Y-87624819D02*
X203473809Y-86624819D01*
X203473809Y-86624819D02*
X203378571Y-86767676D01*
X203378571Y-86767676D02*
X203283333Y-86862914D01*
X203283333Y-86862914D02*
X203188095Y-86910533D01*
X204092857Y-86624819D02*
X204759523Y-86624819D01*
X204759523Y-86624819D02*
X204330952Y-87624819D01*
X221957319Y-138833333D02*
X222671604Y-138833333D01*
X222671604Y-138833333D02*
X222814461Y-138880952D01*
X222814461Y-138880952D02*
X222909700Y-138976190D01*
X222909700Y-138976190D02*
X222957319Y-139119047D01*
X222957319Y-139119047D02*
X222957319Y-139214285D01*
X222957319Y-137833333D02*
X222957319Y-138404761D01*
X222957319Y-138119047D02*
X221957319Y-138119047D01*
X221957319Y-138119047D02*
X222100176Y-138214285D01*
X222100176Y-138214285D02*
X222195414Y-138309523D01*
X222195414Y-138309523D02*
X222243033Y-138404761D01*
X191238095Y-96234819D02*
X191238095Y-97044342D01*
X191238095Y-97044342D02*
X191285714Y-97139580D01*
X191285714Y-97139580D02*
X191333333Y-97187200D01*
X191333333Y-97187200D02*
X191428571Y-97234819D01*
X191428571Y-97234819D02*
X191619047Y-97234819D01*
X191619047Y-97234819D02*
X191714285Y-97187200D01*
X191714285Y-97187200D02*
X191761904Y-97139580D01*
X191761904Y-97139580D02*
X191809523Y-97044342D01*
X191809523Y-97044342D02*
X191809523Y-96234819D01*
X192714285Y-96568152D02*
X192714285Y-97234819D01*
X192476190Y-96187200D02*
X192238095Y-96901485D01*
X192238095Y-96901485D02*
X192857142Y-96901485D01*
X194238095Y-142314819D02*
X194238095Y-143124342D01*
X194238095Y-143124342D02*
X194285714Y-143219580D01*
X194285714Y-143219580D02*
X194333333Y-143267200D01*
X194333333Y-143267200D02*
X194428571Y-143314819D01*
X194428571Y-143314819D02*
X194619047Y-143314819D01*
X194619047Y-143314819D02*
X194714285Y-143267200D01*
X194714285Y-143267200D02*
X194761904Y-143219580D01*
X194761904Y-143219580D02*
X194809523Y-143124342D01*
X194809523Y-143124342D02*
X194809523Y-142314819D01*
X195809523Y-143314819D02*
X195238095Y-143314819D01*
X195523809Y-143314819D02*
X195523809Y-142314819D01*
X195523809Y-142314819D02*
X195428571Y-142457676D01*
X195428571Y-142457676D02*
X195333333Y-142552914D01*
X195333333Y-142552914D02*
X195238095Y-142600533D01*
X145357142Y-114454819D02*
X145023809Y-113978628D01*
X144785714Y-114454819D02*
X144785714Y-113454819D01*
X144785714Y-113454819D02*
X145166666Y-113454819D01*
X145166666Y-113454819D02*
X145261904Y-113502438D01*
X145261904Y-113502438D02*
X145309523Y-113550057D01*
X145309523Y-113550057D02*
X145357142Y-113645295D01*
X145357142Y-113645295D02*
X145357142Y-113788152D01*
X145357142Y-113788152D02*
X145309523Y-113883390D01*
X145309523Y-113883390D02*
X145261904Y-113931009D01*
X145261904Y-113931009D02*
X145166666Y-113978628D01*
X145166666Y-113978628D02*
X144785714Y-113978628D01*
X146309523Y-114454819D02*
X145738095Y-114454819D01*
X146023809Y-114454819D02*
X146023809Y-113454819D01*
X146023809Y-113454819D02*
X145928571Y-113597676D01*
X145928571Y-113597676D02*
X145833333Y-113692914D01*
X145833333Y-113692914D02*
X145738095Y-113740533D01*
X146928571Y-113454819D02*
X147023809Y-113454819D01*
X147023809Y-113454819D02*
X147119047Y-113502438D01*
X147119047Y-113502438D02*
X147166666Y-113550057D01*
X147166666Y-113550057D02*
X147214285Y-113645295D01*
X147214285Y-113645295D02*
X147261904Y-113835771D01*
X147261904Y-113835771D02*
X147261904Y-114073866D01*
X147261904Y-114073866D02*
X147214285Y-114264342D01*
X147214285Y-114264342D02*
X147166666Y-114359580D01*
X147166666Y-114359580D02*
X147119047Y-114407200D01*
X147119047Y-114407200D02*
X147023809Y-114454819D01*
X147023809Y-114454819D02*
X146928571Y-114454819D01*
X146928571Y-114454819D02*
X146833333Y-114407200D01*
X146833333Y-114407200D02*
X146785714Y-114359580D01*
X146785714Y-114359580D02*
X146738095Y-114264342D01*
X146738095Y-114264342D02*
X146690476Y-114073866D01*
X146690476Y-114073866D02*
X146690476Y-113835771D01*
X146690476Y-113835771D02*
X146738095Y-113645295D01*
X146738095Y-113645295D02*
X146785714Y-113550057D01*
X146785714Y-113550057D02*
X146833333Y-113502438D01*
X146833333Y-113502438D02*
X146928571Y-113454819D01*
X149238095Y-144004819D02*
X149238095Y-143004819D01*
X149238095Y-143481009D02*
X149809523Y-143481009D01*
X149809523Y-144004819D02*
X149809523Y-143004819D01*
X150190476Y-143004819D02*
X150809523Y-143004819D01*
X150809523Y-143004819D02*
X150476190Y-143385771D01*
X150476190Y-143385771D02*
X150619047Y-143385771D01*
X150619047Y-143385771D02*
X150714285Y-143433390D01*
X150714285Y-143433390D02*
X150761904Y-143481009D01*
X150761904Y-143481009D02*
X150809523Y-143576247D01*
X150809523Y-143576247D02*
X150809523Y-143814342D01*
X150809523Y-143814342D02*
X150761904Y-143909580D01*
X150761904Y-143909580D02*
X150714285Y-143957200D01*
X150714285Y-143957200D02*
X150619047Y-144004819D01*
X150619047Y-144004819D02*
X150333333Y-144004819D01*
X150333333Y-144004819D02*
X150238095Y-143957200D01*
X150238095Y-143957200D02*
X150190476Y-143909580D01*
X181283333Y-128624819D02*
X180950000Y-128148628D01*
X180711905Y-128624819D02*
X180711905Y-127624819D01*
X180711905Y-127624819D02*
X181092857Y-127624819D01*
X181092857Y-127624819D02*
X181188095Y-127672438D01*
X181188095Y-127672438D02*
X181235714Y-127720057D01*
X181235714Y-127720057D02*
X181283333Y-127815295D01*
X181283333Y-127815295D02*
X181283333Y-127958152D01*
X181283333Y-127958152D02*
X181235714Y-128053390D01*
X181235714Y-128053390D02*
X181188095Y-128101009D01*
X181188095Y-128101009D02*
X181092857Y-128148628D01*
X181092857Y-128148628D02*
X180711905Y-128148628D01*
X181616667Y-127624819D02*
X182283333Y-127624819D01*
X182283333Y-127624819D02*
X181854762Y-128624819D01*
X183833333Y-142609580D02*
X183785714Y-142657200D01*
X183785714Y-142657200D02*
X183642857Y-142704819D01*
X183642857Y-142704819D02*
X183547619Y-142704819D01*
X183547619Y-142704819D02*
X183404762Y-142657200D01*
X183404762Y-142657200D02*
X183309524Y-142561961D01*
X183309524Y-142561961D02*
X183261905Y-142466723D01*
X183261905Y-142466723D02*
X183214286Y-142276247D01*
X183214286Y-142276247D02*
X183214286Y-142133390D01*
X183214286Y-142133390D02*
X183261905Y-141942914D01*
X183261905Y-141942914D02*
X183309524Y-141847676D01*
X183309524Y-141847676D02*
X183404762Y-141752438D01*
X183404762Y-141752438D02*
X183547619Y-141704819D01*
X183547619Y-141704819D02*
X183642857Y-141704819D01*
X183642857Y-141704819D02*
X183785714Y-141752438D01*
X183785714Y-141752438D02*
X183833333Y-141800057D01*
X184214286Y-141800057D02*
X184261905Y-141752438D01*
X184261905Y-141752438D02*
X184357143Y-141704819D01*
X184357143Y-141704819D02*
X184595238Y-141704819D01*
X184595238Y-141704819D02*
X184690476Y-141752438D01*
X184690476Y-141752438D02*
X184738095Y-141800057D01*
X184738095Y-141800057D02*
X184785714Y-141895295D01*
X184785714Y-141895295D02*
X184785714Y-141990533D01*
X184785714Y-141990533D02*
X184738095Y-142133390D01*
X184738095Y-142133390D02*
X184166667Y-142704819D01*
X184166667Y-142704819D02*
X184785714Y-142704819D01*
X165807142Y-154624819D02*
X165473809Y-154148628D01*
X165235714Y-154624819D02*
X165235714Y-153624819D01*
X165235714Y-153624819D02*
X165616666Y-153624819D01*
X165616666Y-153624819D02*
X165711904Y-153672438D01*
X165711904Y-153672438D02*
X165759523Y-153720057D01*
X165759523Y-153720057D02*
X165807142Y-153815295D01*
X165807142Y-153815295D02*
X165807142Y-153958152D01*
X165807142Y-153958152D02*
X165759523Y-154053390D01*
X165759523Y-154053390D02*
X165711904Y-154101009D01*
X165711904Y-154101009D02*
X165616666Y-154148628D01*
X165616666Y-154148628D02*
X165235714Y-154148628D01*
X166188095Y-153720057D02*
X166235714Y-153672438D01*
X166235714Y-153672438D02*
X166330952Y-153624819D01*
X166330952Y-153624819D02*
X166569047Y-153624819D01*
X166569047Y-153624819D02*
X166664285Y-153672438D01*
X166664285Y-153672438D02*
X166711904Y-153720057D01*
X166711904Y-153720057D02*
X166759523Y-153815295D01*
X166759523Y-153815295D02*
X166759523Y-153910533D01*
X166759523Y-153910533D02*
X166711904Y-154053390D01*
X166711904Y-154053390D02*
X166140476Y-154624819D01*
X166140476Y-154624819D02*
X166759523Y-154624819D01*
X167378571Y-153624819D02*
X167473809Y-153624819D01*
X167473809Y-153624819D02*
X167569047Y-153672438D01*
X167569047Y-153672438D02*
X167616666Y-153720057D01*
X167616666Y-153720057D02*
X167664285Y-153815295D01*
X167664285Y-153815295D02*
X167711904Y-154005771D01*
X167711904Y-154005771D02*
X167711904Y-154243866D01*
X167711904Y-154243866D02*
X167664285Y-154434342D01*
X167664285Y-154434342D02*
X167616666Y-154529580D01*
X167616666Y-154529580D02*
X167569047Y-154577200D01*
X167569047Y-154577200D02*
X167473809Y-154624819D01*
X167473809Y-154624819D02*
X167378571Y-154624819D01*
X167378571Y-154624819D02*
X167283333Y-154577200D01*
X167283333Y-154577200D02*
X167235714Y-154529580D01*
X167235714Y-154529580D02*
X167188095Y-154434342D01*
X167188095Y-154434342D02*
X167140476Y-154243866D01*
X167140476Y-154243866D02*
X167140476Y-154005771D01*
X167140476Y-154005771D02*
X167188095Y-153815295D01*
X167188095Y-153815295D02*
X167235714Y-153720057D01*
X167235714Y-153720057D02*
X167283333Y-153672438D01*
X167283333Y-153672438D02*
X167378571Y-153624819D01*
X184807142Y-90624819D02*
X184473809Y-90148628D01*
X184235714Y-90624819D02*
X184235714Y-89624819D01*
X184235714Y-89624819D02*
X184616666Y-89624819D01*
X184616666Y-89624819D02*
X184711904Y-89672438D01*
X184711904Y-89672438D02*
X184759523Y-89720057D01*
X184759523Y-89720057D02*
X184807142Y-89815295D01*
X184807142Y-89815295D02*
X184807142Y-89958152D01*
X184807142Y-89958152D02*
X184759523Y-90053390D01*
X184759523Y-90053390D02*
X184711904Y-90101009D01*
X184711904Y-90101009D02*
X184616666Y-90148628D01*
X184616666Y-90148628D02*
X184235714Y-90148628D01*
X185759523Y-90624819D02*
X185188095Y-90624819D01*
X185473809Y-90624819D02*
X185473809Y-89624819D01*
X185473809Y-89624819D02*
X185378571Y-89767676D01*
X185378571Y-89767676D02*
X185283333Y-89862914D01*
X185283333Y-89862914D02*
X185188095Y-89910533D01*
X186664285Y-89624819D02*
X186188095Y-89624819D01*
X186188095Y-89624819D02*
X186140476Y-90101009D01*
X186140476Y-90101009D02*
X186188095Y-90053390D01*
X186188095Y-90053390D02*
X186283333Y-90005771D01*
X186283333Y-90005771D02*
X186521428Y-90005771D01*
X186521428Y-90005771D02*
X186616666Y-90053390D01*
X186616666Y-90053390D02*
X186664285Y-90101009D01*
X186664285Y-90101009D02*
X186711904Y-90196247D01*
X186711904Y-90196247D02*
X186711904Y-90434342D01*
X186711904Y-90434342D02*
X186664285Y-90529580D01*
X186664285Y-90529580D02*
X186616666Y-90577200D01*
X186616666Y-90577200D02*
X186521428Y-90624819D01*
X186521428Y-90624819D02*
X186283333Y-90624819D01*
X186283333Y-90624819D02*
X186188095Y-90577200D01*
X186188095Y-90577200D02*
X186140476Y-90529580D01*
D12*
%TO.C,D2*%
X222540000Y-111545000D02*
X222540000Y-108455000D01*
X216990000Y-110000000D02*
G75*
G02*
X222540000Y-108455170I2990000J0D01*
G01*
X222540000Y-111544830D02*
G75*
G02*
X216990000Y-110000000I-2560000J1544830D01*
G01*
X222480000Y-110000000D02*
G75*
G02*
X217480000Y-110000000I-2500000J0D01*
G01*
X217480000Y-110000000D02*
G75*
G02*
X222480000Y-110000000I2500000J0D01*
G01*
%TO.C,R14*%
X202722936Y-108090000D02*
X204177064Y-108090000D01*
X202722936Y-109910000D02*
X204177064Y-109910000D01*
%TO.C,U5*%
X210902500Y-81352500D02*
X212532500Y-81352500D01*
X210902500Y-82982500D02*
X210902500Y-81352500D01*
D11*
X211262500Y-81712500D02*
X211262500Y-94412500D01*
X211262500Y-94412500D02*
X218882500Y-94412500D01*
X218882500Y-81712500D02*
X211262500Y-81712500D01*
X218882500Y-94412500D02*
X218882500Y-81712500D01*
D12*
%TO.C,D4*%
X174990000Y-156000000D02*
X177280000Y-156000000D01*
X178060000Y-154530000D02*
X178060000Y-157470000D01*
X178180000Y-154530000D02*
X178180000Y-157470000D01*
X178300000Y-154530000D02*
X178300000Y-157470000D01*
X185010000Y-156000000D02*
X182720000Y-156000000D01*
X177280000Y-154530000D02*
X182720000Y-154530000D01*
X182720000Y-157470000D01*
X177280000Y-157470000D01*
X177280000Y-154530000D01*
%TO.C,U6*%
X201137500Y-124390000D02*
X200337500Y-124390000D01*
X201137500Y-124390000D02*
X201937500Y-124390000D01*
X201137500Y-127510000D02*
X200337500Y-127510000D01*
X201137500Y-127510000D02*
X201937500Y-127510000D01*
X199837500Y-124440000D02*
X199597500Y-124110000D01*
X200077500Y-124110000D01*
X199837500Y-124440000D01*
G36*
X199837500Y-124440000D02*
G01*
X199597500Y-124110000D01*
X200077500Y-124110000D01*
X199837500Y-124440000D01*
G37*
%TO.C,R6*%
X202722936Y-100090000D02*
X204177064Y-100090000D01*
X202722936Y-101910000D02*
X204177064Y-101910000D01*
%TO.C,D5*%
X222540000Y-127795000D02*
X222540000Y-124705000D01*
X216990000Y-126250000D02*
G75*
G02*
X222540000Y-124705170I2990000J0D01*
G01*
X222540000Y-127794830D02*
G75*
G02*
X216990000Y-126250000I-2560000J1544830D01*
G01*
X222480000Y-126250000D02*
G75*
G02*
X217480000Y-126250000I-2500000J0D01*
G01*
X217480000Y-126250000D02*
G75*
G02*
X222480000Y-126250000I2500000J0D01*
G01*
%TO.C,R3*%
X226880000Y-118000000D02*
X227650000Y-118000000D01*
X234960000Y-118000000D02*
X234190000Y-118000000D01*
X227650000Y-116630000D02*
X234190000Y-116630000D01*
X234190000Y-119370000D01*
X227650000Y-119370000D01*
X227650000Y-116630000D01*
%TO.C,SW2*%
X173590000Y-133740000D02*
X182410000Y-133740000D01*
X173590000Y-134050000D02*
X173590000Y-133740000D01*
X173590000Y-138260000D02*
X173590000Y-137950000D01*
X175500000Y-133040000D02*
X176000000Y-133540000D01*
X176000000Y-133540000D02*
X176500000Y-133040000D01*
X176500000Y-133040000D02*
X175500000Y-133040000D01*
X182410000Y-133740000D02*
X182410000Y-134050000D01*
X182410000Y-138260000D02*
X173590000Y-138260000D01*
X182410000Y-138260000D02*
X182410000Y-137950000D01*
%TO.C,R12*%
X148822936Y-105090000D02*
X150277064Y-105090000D01*
X148822936Y-106910000D02*
X150277064Y-106910000D01*
%TO.C,L1*%
X201720000Y-136500000D02*
G75*
G02*
X194280000Y-136500000I-3720000J0D01*
G01*
X194280000Y-136500000D02*
G75*
G02*
X201720000Y-136500000I3720000J0D01*
G01*
%TO.C,C3*%
X173726248Y-129090000D02*
X175148752Y-129090000D01*
X173726248Y-130910000D02*
X175148752Y-130910000D01*
%TO.C,C5*%
X168148752Y-136090000D02*
X166726248Y-136090000D01*
X168148752Y-137910000D02*
X166726248Y-137910000D01*
%TO.C,R11*%
X148822936Y-110090000D02*
X150277064Y-110090000D01*
X148822936Y-111910000D02*
X150277064Y-111910000D01*
%TO.C,U2*%
X161560000Y-97510000D02*
X161560000Y-117950000D01*
X161560000Y-117950000D02*
X166060000Y-117950000D01*
X162810000Y-97510000D02*
X161560000Y-97510000D01*
X166060000Y-97510000D02*
X164810000Y-97510000D01*
X166060000Y-117950000D02*
X166060000Y-97510000D01*
X158560000Y-97450000D02*
X169060000Y-97450000D01*
X169060000Y-118010000D01*
X158560000Y-118010000D01*
X158560000Y-97450000D01*
X164810000Y-97510000D02*
G75*
G02*
X162810000Y-97510000I-1000000J0D01*
G01*
%TO.C,R18*%
X202722936Y-92090000D02*
X204177064Y-92090000D01*
X202722936Y-93910000D02*
X204177064Y-93910000D01*
%TO.C,R9*%
X148822936Y-100090000D02*
X150277064Y-100090000D01*
X148822936Y-101910000D02*
X150277064Y-101910000D01*
%TO.C,U3*%
X175750000Y-97780000D02*
X175750000Y-118220000D01*
X175750000Y-118220000D02*
X180250000Y-118220000D01*
X177000000Y-97780000D02*
X175750000Y-97780000D01*
X180250000Y-97780000D02*
X179000000Y-97780000D01*
X180250000Y-118220000D02*
X180250000Y-97780000D01*
X172750000Y-97720000D02*
X183250000Y-97720000D01*
X183250000Y-118280000D01*
X172750000Y-118280000D01*
X172750000Y-97720000D01*
X179000000Y-97780000D02*
G75*
G02*
X177000000Y-97780000I-1000000J0D01*
G01*
%TO.C,R16*%
X202722936Y-112090000D02*
X204177064Y-112090000D01*
X202722936Y-113910000D02*
X204177064Y-113910000D01*
%TO.C,D1*%
X222540000Y-103545000D02*
X222540000Y-100455000D01*
X216990000Y-102000000D02*
G75*
G02*
X222540000Y-100455170I2990000J0D01*
G01*
X222540000Y-103544830D02*
G75*
G02*
X216990000Y-102000000I-2560000J1544830D01*
G01*
X222480000Y-102000000D02*
G75*
G02*
X217480000Y-102000000I-2500000J0D01*
G01*
X217480000Y-102000000D02*
G75*
G02*
X222480000Y-102000000I2500000J0D01*
G01*
%TO.C,SW1*%
X147000000Y-129250000D02*
X147000000Y-130750000D01*
X148250000Y-133250000D02*
X152750000Y-133250000D01*
X152750000Y-126750000D02*
X148250000Y-126750000D01*
X154000000Y-130750000D02*
X154000000Y-129250000D01*
%TO.C,R2*%
X226880000Y-110000000D02*
X227650000Y-110000000D01*
X234960000Y-110000000D02*
X234190000Y-110000000D01*
X227650000Y-108630000D02*
X234190000Y-108630000D01*
X234190000Y-111370000D01*
X227650000Y-111370000D01*
X227650000Y-108630000D01*
%TO.C,R8*%
X202722936Y-104090000D02*
X204177064Y-104090000D01*
X202722936Y-105910000D02*
X204177064Y-105910000D01*
%TO.C,R1*%
X226880000Y-102000000D02*
X227650000Y-102000000D01*
X234960000Y-102000000D02*
X234190000Y-102000000D01*
X227650000Y-100630000D02*
X234190000Y-100630000D01*
X234190000Y-103370000D01*
X227650000Y-103370000D01*
X227650000Y-100630000D01*
%TO.C,D3*%
X222540000Y-119545000D02*
X222540000Y-116455000D01*
X216990000Y-118000000D02*
G75*
G02*
X222540000Y-116455170I2990000J0D01*
G01*
X222540000Y-119544830D02*
G75*
G02*
X216990000Y-118000000I-2560000J1544830D01*
G01*
X222480000Y-118000000D02*
G75*
G02*
X217480000Y-118000000I-2500000J0D01*
G01*
X217480000Y-118000000D02*
G75*
G02*
X222480000Y-118000000I2500000J0D01*
G01*
%TO.C,U7*%
X161355000Y-141860000D02*
X161355000Y-152140000D01*
X161355000Y-152140000D02*
X166655000Y-152140000D01*
X163005000Y-141860000D02*
X161355000Y-141860000D01*
X166655000Y-141860000D02*
X165005000Y-141860000D01*
X166655000Y-152140000D02*
X166655000Y-141860000D01*
X165005000Y-141860000D02*
G75*
G02*
X163005000Y-141860000I-1000000J0D01*
G01*
%TO.C,C4*%
X159726248Y-136090000D02*
X161148752Y-136090000D01*
X159726248Y-137910000D02*
X161148752Y-137910000D01*
%TO.C,R4*%
X226880000Y-125000000D02*
X227650000Y-125000000D01*
X234960000Y-125000000D02*
X234190000Y-125000000D01*
X227650000Y-123630000D02*
X234190000Y-123630000D01*
X234190000Y-126370000D01*
X227650000Y-126370000D01*
X227650000Y-123630000D01*
%TO.C,R5*%
X202722936Y-96090000D02*
X204177064Y-96090000D01*
X202722936Y-97910000D02*
X204177064Y-97910000D01*
%TO.C,R13*%
X175522936Y-123840000D02*
X176977064Y-123840000D01*
X175522936Y-125660000D02*
X176977064Y-125660000D01*
%TO.C,R19*%
X158822936Y-155090000D02*
X160277064Y-155090000D01*
X158822936Y-156910000D02*
X160277064Y-156910000D01*
%TO.C,C1*%
X205195225Y-151525000D02*
X205695225Y-151525000D01*
X205445225Y-151275000D02*
X205445225Y-151775000D01*
X208000000Y-150420000D02*
X208000000Y-151960000D01*
X208000000Y-154040000D02*
X208000000Y-155580000D01*
X208040000Y-150420000D02*
X208040000Y-151960000D01*
X208040000Y-154040000D02*
X208040000Y-155580000D01*
X208080000Y-150421000D02*
X208080000Y-151960000D01*
X208080000Y-154040000D02*
X208080000Y-155579000D01*
X208120000Y-150423000D02*
X208120000Y-151960000D01*
X208120000Y-154040000D02*
X208120000Y-155577000D01*
X208160000Y-150425000D02*
X208160000Y-151960000D01*
X208160000Y-154040000D02*
X208160000Y-155575000D01*
X208200000Y-150428000D02*
X208200000Y-151960000D01*
X208200000Y-154040000D02*
X208200000Y-155572000D01*
X208240000Y-150431000D02*
X208240000Y-151960000D01*
X208240000Y-154040000D02*
X208240000Y-155569000D01*
X208280000Y-150435000D02*
X208280000Y-151960000D01*
X208280000Y-154040000D02*
X208280000Y-155565000D01*
X208320000Y-150440000D02*
X208320000Y-151960000D01*
X208320000Y-154040000D02*
X208320000Y-155560000D01*
X208360000Y-150445000D02*
X208360000Y-151960000D01*
X208360000Y-154040000D02*
X208360000Y-155555000D01*
X208400000Y-150451000D02*
X208400000Y-151960000D01*
X208400000Y-154040000D02*
X208400000Y-155549000D01*
X208440000Y-150457000D02*
X208440000Y-151960000D01*
X208440000Y-154040000D02*
X208440000Y-155543000D01*
X208480000Y-150464000D02*
X208480000Y-151960000D01*
X208480000Y-154040000D02*
X208480000Y-155536000D01*
X208520000Y-150472000D02*
X208520000Y-151960000D01*
X208520000Y-154040000D02*
X208520000Y-155528000D01*
X208560000Y-150481000D02*
X208560000Y-151960000D01*
X208560000Y-154040000D02*
X208560000Y-155519000D01*
X208600000Y-150490000D02*
X208600000Y-151960000D01*
X208600000Y-154040000D02*
X208600000Y-155510000D01*
X208640000Y-150499000D02*
X208640000Y-151960000D01*
X208640000Y-154040000D02*
X208640000Y-155501000D01*
X208680000Y-150510000D02*
X208680000Y-151960000D01*
X208680000Y-154040000D02*
X208680000Y-155490000D01*
X208720000Y-150521000D02*
X208720000Y-151960000D01*
X208720000Y-154040000D02*
X208720000Y-155479000D01*
X208760000Y-150533000D02*
X208760000Y-151960000D01*
X208760000Y-154040000D02*
X208760000Y-155467000D01*
X208800000Y-150545000D02*
X208800000Y-151960000D01*
X208800000Y-154040000D02*
X208800000Y-155455000D01*
X208840000Y-150558000D02*
X208840000Y-151960000D01*
X208840000Y-154040000D02*
X208840000Y-155442000D01*
X208880000Y-150572000D02*
X208880000Y-151960000D01*
X208880000Y-154040000D02*
X208880000Y-155428000D01*
X208920000Y-150587000D02*
X208920000Y-151960000D01*
X208920000Y-154040000D02*
X208920000Y-155413000D01*
X208960000Y-150602000D02*
X208960000Y-151960000D01*
X208960000Y-154040000D02*
X208960000Y-155398000D01*
X209000000Y-150618000D02*
X209000000Y-151960000D01*
X209000000Y-154040000D02*
X209000000Y-155382000D01*
X209040000Y-150635000D02*
X209040000Y-151960000D01*
X209040000Y-154040000D02*
X209040000Y-155365000D01*
X209080000Y-150653000D02*
X209080000Y-151960000D01*
X209080000Y-154040000D02*
X209080000Y-155347000D01*
X209120000Y-150671000D02*
X209120000Y-151960000D01*
X209120000Y-154040000D02*
X209120000Y-155329000D01*
X209160000Y-150691000D02*
X209160000Y-151960000D01*
X209160000Y-154040000D02*
X209160000Y-155309000D01*
X209200000Y-150711000D02*
X209200000Y-151960000D01*
X209200000Y-154040000D02*
X209200000Y-155289000D01*
X209240000Y-150732000D02*
X209240000Y-151960000D01*
X209240000Y-154040000D02*
X209240000Y-155268000D01*
X209280000Y-150754000D02*
X209280000Y-151960000D01*
X209280000Y-154040000D02*
X209280000Y-155246000D01*
X209320000Y-150777000D02*
X209320000Y-151960000D01*
X209320000Y-154040000D02*
X209320000Y-155223000D01*
X209360000Y-150801000D02*
X209360000Y-151960000D01*
X209360000Y-154040000D02*
X209360000Y-155199000D01*
X209400000Y-150825000D02*
X209400000Y-151960000D01*
X209400000Y-154040000D02*
X209400000Y-155175000D01*
X209440000Y-150851000D02*
X209440000Y-151960000D01*
X209440000Y-154040000D02*
X209440000Y-155149000D01*
X209480000Y-150878000D02*
X209480000Y-151960000D01*
X209480000Y-154040000D02*
X209480000Y-155122000D01*
X209520000Y-150906000D02*
X209520000Y-151960000D01*
X209520000Y-154040000D02*
X209520000Y-155094000D01*
X209560000Y-150935000D02*
X209560000Y-151960000D01*
X209560000Y-154040000D02*
X209560000Y-155065000D01*
X209600000Y-150965000D02*
X209600000Y-151960000D01*
X209600000Y-154040000D02*
X209600000Y-155035000D01*
X209640000Y-150997000D02*
X209640000Y-151960000D01*
X209640000Y-154040000D02*
X209640000Y-155003000D01*
X209680000Y-151030000D02*
X209680000Y-151960000D01*
X209680000Y-154040000D02*
X209680000Y-154970000D01*
X209720000Y-151064000D02*
X209720000Y-151960000D01*
X209720000Y-154040000D02*
X209720000Y-154936000D01*
X209760000Y-151099000D02*
X209760000Y-151960000D01*
X209760000Y-154040000D02*
X209760000Y-154901000D01*
X209800000Y-151136000D02*
X209800000Y-151960000D01*
X209800000Y-154040000D02*
X209800000Y-154864000D01*
X209840000Y-151175000D02*
X209840000Y-151960000D01*
X209840000Y-154040000D02*
X209840000Y-154825000D01*
X209880000Y-151215000D02*
X209880000Y-151960000D01*
X209880000Y-154040000D02*
X209880000Y-154785000D01*
X209920000Y-151257000D02*
X209920000Y-151960000D01*
X209920000Y-154040000D02*
X209920000Y-154743000D01*
X209960000Y-151301000D02*
X209960000Y-151960000D01*
X209960000Y-154040000D02*
X209960000Y-154699000D01*
X210000000Y-151348000D02*
X210000000Y-151960000D01*
X210000000Y-154040000D02*
X210000000Y-154652000D01*
X210040000Y-151396000D02*
X210040000Y-154604000D01*
X210080000Y-151447000D02*
X210080000Y-154553000D01*
X210120000Y-151501000D02*
X210120000Y-154499000D01*
X210160000Y-151557000D02*
X210160000Y-154443000D01*
X210200000Y-151617000D02*
X210200000Y-154383000D01*
X210240000Y-151681000D02*
X210240000Y-154319000D01*
X210280000Y-151749000D02*
X210280000Y-154251000D01*
X210320000Y-151823000D02*
X210320000Y-154177000D01*
X210360000Y-151902000D02*
X210360000Y-154098000D01*
X210400000Y-151989000D02*
X210400000Y-154011000D01*
X210440000Y-152086000D02*
X210440000Y-153914000D01*
X210480000Y-152195000D02*
X210480000Y-153805000D01*
X210520000Y-152323000D02*
X210520000Y-153677000D01*
X210560000Y-152483000D02*
X210560000Y-153517000D01*
X210600000Y-152717000D02*
X210600000Y-153283000D01*
X210620000Y-153000000D02*
G75*
G02*
X205380000Y-153000000I-2620000J0D01*
G01*
X205380000Y-153000000D02*
G75*
G02*
X210620000Y-153000000I2620000J0D01*
G01*
%TO.C,R17*%
X202722936Y-88090000D02*
X204177064Y-88090000D01*
X202722936Y-89910000D02*
X204177064Y-89910000D01*
%TO.C,J1*%
X210762500Y-133380000D02*
X221502500Y-133380000D01*
X210762500Y-135700000D02*
X210762500Y-133380000D01*
X210762500Y-143620000D02*
X210762500Y-136300000D01*
X212882500Y-133380000D02*
X212882500Y-143620000D01*
X216882500Y-133380000D02*
X216882500Y-143620000D01*
X217882500Y-133380000D02*
X217882500Y-143620000D01*
X221502500Y-133380000D02*
X221502500Y-143620000D01*
X221502500Y-143620000D02*
X210762500Y-143620000D01*
X210762500Y-136000000D02*
X210152500Y-136440000D01*
X210152500Y-135560000D01*
X210762500Y-136000000D01*
G36*
X210762500Y-136000000D02*
G01*
X210152500Y-136440000D01*
X210152500Y-135560000D01*
X210762500Y-136000000D01*
G37*
%TO.C,U4*%
X189750000Y-97780000D02*
X189750000Y-118220000D01*
X189750000Y-118220000D02*
X194250000Y-118220000D01*
X191000000Y-97780000D02*
X189750000Y-97780000D01*
X194250000Y-97780000D02*
X193000000Y-97780000D01*
X194250000Y-118220000D02*
X194250000Y-97780000D01*
X186750000Y-97720000D02*
X197250000Y-97720000D01*
X197250000Y-118280000D01*
X186750000Y-118280000D01*
X186750000Y-97720000D01*
X193000000Y-97780000D02*
G75*
G02*
X191000000Y-97780000I-1000000J0D01*
G01*
%TO.C,U1*%
X192750000Y-143860000D02*
X192750000Y-154140000D01*
X192750000Y-154140000D02*
X197250000Y-154140000D01*
X194000000Y-143860000D02*
X192750000Y-143860000D01*
X197250000Y-143860000D02*
X196000000Y-143860000D01*
X197250000Y-154140000D02*
X197250000Y-143860000D01*
X189750000Y-143800000D02*
X200250000Y-143800000D01*
X200250000Y-154200000D01*
X189750000Y-154200000D01*
X189750000Y-143800000D01*
X196000000Y-143860000D02*
G75*
G02*
X194000000Y-143860000I-1000000J0D01*
G01*
%TO.C,R10*%
X148822936Y-115090000D02*
X150277064Y-115090000D01*
X148822936Y-116910000D02*
X150277064Y-116910000D01*
%TO.C,R7*%
X180722936Y-129090000D02*
X182177064Y-129090000D01*
X180722936Y-130910000D02*
X182177064Y-130910000D01*
%TO.C,C2*%
X181195225Y-144525000D02*
X181695225Y-144525000D01*
X181445225Y-144275000D02*
X181445225Y-144775000D01*
X184000000Y-143420000D02*
X184000000Y-144960000D01*
X184000000Y-147040000D02*
X184000000Y-148580000D01*
X184040000Y-143420000D02*
X184040000Y-144960000D01*
X184040000Y-147040000D02*
X184040000Y-148580000D01*
X184080000Y-143421000D02*
X184080000Y-144960000D01*
X184080000Y-147040000D02*
X184080000Y-148579000D01*
X184120000Y-143423000D02*
X184120000Y-144960000D01*
X184120000Y-147040000D02*
X184120000Y-148577000D01*
X184160000Y-143425000D02*
X184160000Y-144960000D01*
X184160000Y-147040000D02*
X184160000Y-148575000D01*
X184200000Y-143428000D02*
X184200000Y-144960000D01*
X184200000Y-147040000D02*
X184200000Y-148572000D01*
X184240000Y-143431000D02*
X184240000Y-144960000D01*
X184240000Y-147040000D02*
X184240000Y-148569000D01*
X184280000Y-143435000D02*
X184280000Y-144960000D01*
X184280000Y-147040000D02*
X184280000Y-148565000D01*
X184320000Y-143440000D02*
X184320000Y-144960000D01*
X184320000Y-147040000D02*
X184320000Y-148560000D01*
X184360000Y-143445000D02*
X184360000Y-144960000D01*
X184360000Y-147040000D02*
X184360000Y-148555000D01*
X184400000Y-143451000D02*
X184400000Y-144960000D01*
X184400000Y-147040000D02*
X184400000Y-148549000D01*
X184440000Y-143457000D02*
X184440000Y-144960000D01*
X184440000Y-147040000D02*
X184440000Y-148543000D01*
X184480000Y-143464000D02*
X184480000Y-144960000D01*
X184480000Y-147040000D02*
X184480000Y-148536000D01*
X184520000Y-143472000D02*
X184520000Y-144960000D01*
X184520000Y-147040000D02*
X184520000Y-148528000D01*
X184560000Y-143481000D02*
X184560000Y-144960000D01*
X184560000Y-147040000D02*
X184560000Y-148519000D01*
X184600000Y-143490000D02*
X184600000Y-144960000D01*
X184600000Y-147040000D02*
X184600000Y-148510000D01*
X184640000Y-143499000D02*
X184640000Y-144960000D01*
X184640000Y-147040000D02*
X184640000Y-148501000D01*
X184680000Y-143510000D02*
X184680000Y-144960000D01*
X184680000Y-147040000D02*
X184680000Y-148490000D01*
X184720000Y-143521000D02*
X184720000Y-144960000D01*
X184720000Y-147040000D02*
X184720000Y-148479000D01*
X184760000Y-143533000D02*
X184760000Y-144960000D01*
X184760000Y-147040000D02*
X184760000Y-148467000D01*
X184800000Y-143545000D02*
X184800000Y-144960000D01*
X184800000Y-147040000D02*
X184800000Y-148455000D01*
X184840000Y-143558000D02*
X184840000Y-144960000D01*
X184840000Y-147040000D02*
X184840000Y-148442000D01*
X184880000Y-143572000D02*
X184880000Y-144960000D01*
X184880000Y-147040000D02*
X184880000Y-148428000D01*
X184920000Y-143587000D02*
X184920000Y-144960000D01*
X184920000Y-147040000D02*
X184920000Y-148413000D01*
X184960000Y-143602000D02*
X184960000Y-144960000D01*
X184960000Y-147040000D02*
X184960000Y-148398000D01*
X185000000Y-143618000D02*
X185000000Y-144960000D01*
X185000000Y-147040000D02*
X185000000Y-148382000D01*
X185040000Y-143635000D02*
X185040000Y-144960000D01*
X185040000Y-147040000D02*
X185040000Y-148365000D01*
X185080000Y-143653000D02*
X185080000Y-144960000D01*
X185080000Y-147040000D02*
X185080000Y-148347000D01*
X185120000Y-143671000D02*
X185120000Y-144960000D01*
X185120000Y-147040000D02*
X185120000Y-148329000D01*
X185160000Y-143691000D02*
X185160000Y-144960000D01*
X185160000Y-147040000D02*
X185160000Y-148309000D01*
X185200000Y-143711000D02*
X185200000Y-144960000D01*
X185200000Y-147040000D02*
X185200000Y-148289000D01*
X185240000Y-143732000D02*
X185240000Y-144960000D01*
X185240000Y-147040000D02*
X185240000Y-148268000D01*
X185280000Y-143754000D02*
X185280000Y-144960000D01*
X185280000Y-147040000D02*
X185280000Y-148246000D01*
X185320000Y-143777000D02*
X185320000Y-144960000D01*
X185320000Y-147040000D02*
X185320000Y-148223000D01*
X185360000Y-143801000D02*
X185360000Y-144960000D01*
X185360000Y-147040000D02*
X185360000Y-148199000D01*
X185400000Y-143825000D02*
X185400000Y-144960000D01*
X185400000Y-147040000D02*
X185400000Y-148175000D01*
X185440000Y-143851000D02*
X185440000Y-144960000D01*
X185440000Y-147040000D02*
X185440000Y-148149000D01*
X185480000Y-143878000D02*
X185480000Y-144960000D01*
X185480000Y-147040000D02*
X185480000Y-148122000D01*
X185520000Y-143906000D02*
X185520000Y-144960000D01*
X185520000Y-147040000D02*
X185520000Y-148094000D01*
X185560000Y-143935000D02*
X185560000Y-144960000D01*
X185560000Y-147040000D02*
X185560000Y-148065000D01*
X185600000Y-143965000D02*
X185600000Y-144960000D01*
X185600000Y-147040000D02*
X185600000Y-148035000D01*
X185640000Y-143997000D02*
X185640000Y-144960000D01*
X185640000Y-147040000D02*
X185640000Y-148003000D01*
X185680000Y-144030000D02*
X185680000Y-144960000D01*
X185680000Y-147040000D02*
X185680000Y-147970000D01*
X185720000Y-144064000D02*
X185720000Y-144960000D01*
X185720000Y-147040000D02*
X185720000Y-147936000D01*
X185760000Y-144099000D02*
X185760000Y-144960000D01*
X185760000Y-147040000D02*
X185760000Y-147901000D01*
X185800000Y-144136000D02*
X185800000Y-144960000D01*
X185800000Y-147040000D02*
X185800000Y-147864000D01*
X185840000Y-144175000D02*
X185840000Y-144960000D01*
X185840000Y-147040000D02*
X185840000Y-147825000D01*
X185880000Y-144215000D02*
X185880000Y-144960000D01*
X185880000Y-147040000D02*
X185880000Y-147785000D01*
X185920000Y-144257000D02*
X185920000Y-144960000D01*
X185920000Y-147040000D02*
X185920000Y-147743000D01*
X185960000Y-144301000D02*
X185960000Y-144960000D01*
X185960000Y-147040000D02*
X185960000Y-147699000D01*
X186000000Y-144348000D02*
X186000000Y-144960000D01*
X186000000Y-147040000D02*
X186000000Y-147652000D01*
X186040000Y-144396000D02*
X186040000Y-147604000D01*
X186080000Y-144447000D02*
X186080000Y-147553000D01*
X186120000Y-144501000D02*
X186120000Y-147499000D01*
X186160000Y-144557000D02*
X186160000Y-147443000D01*
X186200000Y-144617000D02*
X186200000Y-147383000D01*
X186240000Y-144681000D02*
X186240000Y-147319000D01*
X186280000Y-144749000D02*
X186280000Y-147251000D01*
X186320000Y-144823000D02*
X186320000Y-147177000D01*
X186360000Y-144902000D02*
X186360000Y-147098000D01*
X186400000Y-144989000D02*
X186400000Y-147011000D01*
X186440000Y-145086000D02*
X186440000Y-146914000D01*
X186480000Y-145195000D02*
X186480000Y-146805000D01*
X186520000Y-145323000D02*
X186520000Y-146677000D01*
X186560000Y-145483000D02*
X186560000Y-146517000D01*
X186600000Y-145717000D02*
X186600000Y-146283000D01*
X186620000Y-146000000D02*
G75*
G02*
X181380000Y-146000000I-2620000J0D01*
G01*
X181380000Y-146000000D02*
G75*
G02*
X186620000Y-146000000I2620000J0D01*
G01*
%TO.C,R20*%
X165722936Y-155090000D02*
X167177064Y-155090000D01*
X165722936Y-156910000D02*
X167177064Y-156910000D01*
%TO.C,R15*%
X184722936Y-91090000D02*
X186177064Y-91090000D01*
X184722936Y-92910000D02*
X186177064Y-92910000D01*
%TD*%
M02*
